<svg id="Layer_1" data-name="Layer 1" xmlns="http://www.w3.org/2000/svg" viewBox="0 0 300 300"><defs><style>.cls-1{fill:#fec381;}.cls-2{fill:#ba8e5e;}.cls-3{fill:#b3b4b8;}.cls-3,.cls-8{stroke:#f2f2f2;}.cls-3,.cls-4,.cls-8{stroke-miterlimit:10;stroke-width:2px;}.cls-4,.cls-8{fill:none;}.cls-4{stroke:#a67c52;}.cls-5{fill:#4da04d;}.cls-6{fill:#f5ffbf;}.cls-7{fill:#b3b3b3;opacity:0.91;}.cls-9{fill:#5eba5e;}.cls-10{fill:#cf69d1;}.cls-11{fill:#b35bb5;}.cls-12{fill:#e373e6;}.cls-13{fill:#c02dc4;}.cls-14{fill:#478c47;}.cls-15{fill:#51a151;}</style></defs><title>appart</title><rect class="cls-1" width="300" height="300"/><rect class="cls-2" x="76" y="49" width="67" height="67"/><rect class="cls-3" x="22" y="49" width="39" height="65"/><rect class="cls-3" x="166.67" y="49" width="39" height="65"/><rect class="cls-3" x="239" y="49" width="39" height="65"/><rect class="cls-3" x="22" y="150" width="39" height="65"/><rect class="cls-3" x="94.33" y="150" width="39" height="65"/><rect class="cls-3" x="166.67" y="150" width="39" height="65"/><rect class="cls-3" x="22" y="251" width="39" height="72"/><rect class="cls-3" x="94.33" y="251" width="39" height="72"/><rect class="cls-3" x="239" y="251" width="39" height="72"/><rect class="cls-3" x="76" y="88" width="67" height="28"/><rect class="cls-2" x="225" y="149" width="67" height="67"/><rect class="cls-3" x="225" y="188" width="67" height="28"/><rect class="cls-2" x="153" y="254" width="67" height="67"/><line class="cls-4" x1="168.81" y1="275.94" x2="168.81" y2="315.16"/><circle class="cls-5" cx="168.81" cy="277.33" r="10.66"/><circle class="cls-6" cx="162.98" cy="271.58" r="0.38" transform="translate(-143.74 350.59) rotate(-73.48)"/><circle class="cls-6" cx="169.18" cy="273.63" r="0.38"/><circle class="cls-6" cx="170.37" cy="269.17" r="0.38"/><circle class="cls-6" cx="174.23" cy="275.33" r="0.38" transform="translate(-151.6 274.05) rotate(-57.45)"/><circle class="cls-6" cx="164.93" cy="277.86" r="0.38" transform="translate(-5.85 3.56) rotate(-1.21)"/><circle class="cls-6" cx="162.21" cy="279" r="0.38"/><circle class="cls-6" cx="172.79" cy="278.24" r="0.38"/><circle class="cls-6" cx="165.53" cy="283.09" r="0.38"/><circle class="cls-6" cx="172.57" cy="282.71" r="0.38"/><line class="cls-4" x1="209.24" y1="266.73" x2="209.24" y2="310.06"/><circle class="cls-5" cx="209.24" cy="268.12" r="10.66"/><circle class="cls-6" cx="203.41" cy="262.37" r="0.38" transform="translate(-105.98 382.76) rotate(-73.48)"/><circle class="cls-6" cx="209.61" cy="264.42" r="0.38"/><circle class="cls-6" cx="210.8" cy="259.96" r="0.38"/><circle class="cls-6" cx="214.66" cy="266.12" r="0.38" transform="translate(-125.16 303.88) rotate(-57.45)"/><circle class="cls-6" cx="205.36" cy="268.65" r="0.38" transform="translate(-5.64 4.41) rotate(-1.21)"/><circle class="cls-6" cx="202.63" cy="269.78" r="0.38"/><circle class="cls-6" cx="213.22" cy="269.03" r="0.38"/><circle class="cls-6" cx="205.96" cy="273.88" r="0.38"/><circle class="cls-6" cx="213" cy="273.5" r="0.38"/><rect class="cls-7" x="153" y="293" width="67" height="28"/><rect class="cls-8" x="153" y="293" width="67" height="28"/><ellipse class="cls-5" cx="87.98" cy="87.98" rx="8" ry="8.64"/><path class="cls-5" d="M120.8,83.73c3.42,4,2.73,8.87-1.54,10.86s-10.5.36-13.92-3.65-2.73-8.87,1.54-10.86S117.38,79.73,120.8,83.73Z"/><path class="cls-9" d="M122.79,93.64c-6-1.7-9.36-5.91-7.54-9.39s8.13-4.92,14.11-3.22,9.36,5.91,7.54,9.39S128.77,95.34,122.79,93.64Z"/><path class="cls-9" d="M100.25,91.6c-6.38.76-12.11-1.24-12.82-4.46s3.89-6.45,10.27-7.22,12.11,1.24,12.82,4.46S106.63,90.84,100.25,91.6Z"/><circle class="cls-10" cx="124.13" cy="85.74" r="0.64" transform="translate(-18.14 135.92) rotate(-54.06)"/><circle class="cls-11" cx="125.12" cy="85.99" r="0.73" transform="translate(-17.93 136.83) rotate(-54.06)"/><circle class="cls-12" cx="125.04" cy="85.11" r="0.74" transform="translate(-17.25 136.39) rotate(-54.06)"/><circle class="cls-13" cx="124.71" cy="85.67" r="0.41"/><circle class="cls-10" cx="104.01" cy="84.95" r="0.84" transform="translate(-25.81 119.3) rotate(-54.06)"/><circle class="cls-11" cx="105.31" cy="85.28" r="0.96" transform="translate(-25.55 120.49) rotate(-54.06)"/><circle class="cls-12" cx="105.2" cy="84.12" r="0.97" transform="translate(-24.66 119.92) rotate(-54.06)"/><circle class="cls-13" cx="104.77" cy="84.87" r="0.54"/><circle class="cls-10" cx="91.81" cy="85" r="0.7" transform="translate(-30.9 109.45) rotate(-54.06)"/><circle class="cls-11" cx="92.9" cy="85.28" r="0.8" transform="translate(-30.67 110.45) rotate(-54.06)"/><circle class="cls-12" cx="92.81" cy="84.31" r="0.82" transform="translate(-29.92 109.97) rotate(-54.06)"/><circle class="cls-13" cx="92.45" cy="84.93" r="0.46"/><circle class="cls-9" cx="233.78" cy="188.64" r="3.03" transform="translate(7.39 386.1) rotate(-80)"/><circle class="cls-9" cx="234.15" cy="192.66" r="2.41" transform="translate(3.74 389.78) rotate(-80)"/><circle class="cls-9" cx="233.6" cy="195.2" r="2.06" transform="translate(0.79 391.34) rotate(-80)"/><circle class="cls-9" cx="234.66" cy="198.4" r="1.76" transform="matrix(0.17, -0.98, 0.98, 0.17, -1.49, 395.03)"/><circle class="cls-9" cx="233.37" cy="201.06" r="1.76" transform="translate(-5.17 395.96) rotate(-80)"/><circle class="cls-9" cx="234.16" cy="203.92" r="1.5" transform="translate(-7.34 399.09) rotate(-80)"/><circle class="cls-9" cx="233.25" cy="206.37" r="1.5" transform="matrix(0.17, -0.98, 0.98, 0.17, -10.5, 400.23)"/><ellipse class="cls-9" cx="285.9" cy="188.64" rx="3.14" ry="3.03"/><ellipse class="cls-9" cx="284.8" cy="192.53" rx="2.5" ry="2.41"/><ellipse class="cls-9" cx="284.9" cy="195.13" rx="2.14" ry="2.06"/><ellipse class="cls-9" cx="283.24" cy="198.1" rx="1.82" ry="1.76"/><ellipse class="cls-9" cx="284.07" cy="200.94" rx="1.82" ry="1.76"/><ellipse class="cls-9" cx="282.76" cy="203.62" rx="1.56" ry="1.5"/><ellipse class="cls-9" cx="283.24" cy="206.19" rx="1.56" ry="1.5"/><ellipse class="cls-9" cx="262.23" cy="188.64" rx="2.75" ry="3.03" transform="translate(-15.72 24.04) rotate(-5.1)"/><ellipse class="cls-9" cx="261.62" cy="192.6" rx="2.2" ry="2.41" transform="translate(-16.08 24) rotate(-5.1)"/><ellipse class="cls-9" cx="261.94" cy="195.18" rx="1.87" ry="2.06" transform="translate(-16.3 24.04) rotate(-5.1)"/><ellipse class="cls-9" cx="260.75" cy="198.27" rx="1.6" ry="1.76" transform="translate(-16.58 23.95) rotate(-5.1)"/><ellipse class="cls-9" cx="261.73" cy="201.03" rx="1.6" ry="1.76" transform="matrix(1, -0.09, 0.09, 1, -16.82, 24.05)"/><ellipse class="cls-9" cx="260.82" cy="203.81" rx="1.37" ry="1.5" transform="translate(-17.07 23.98) rotate(-5.1)"/><ellipse class="cls-9" cx="261.47" cy="206.33" rx="1.37" ry="1.5" transform="translate(-17.3 24.04) rotate(-5.1)"/><circle class="cls-14" cx="241.52" cy="188.64" r="3.03" transform="translate(-18.57 26.56) rotate(-6.06)"/><circle class="cls-14" cx="240.15" cy="192.39" r="2.41" transform="translate(-18.97 26.43) rotate(-6.06)"/><circle class="cls-14" cx="241.26" cy="195.19" r="2.06" transform="translate(-19.26 26.57) rotate(-6.06)"/><circle class="cls-14" cx="242.56" cy="198.36" r="1.76" transform="translate(-19.59 26.72) rotate(-6.06)"/><circle class="cls-14" cx="242.21" cy="200.93" r="1.76" transform="translate(-19.86 26.7) rotate(-6.06)"/><circle class="cls-14" cx="243.65" cy="203.54" r="1.5" transform="translate(17.22 426.07) rotate(-84.38)"/><circle class="cls-14" cx="243.38" cy="206.09" r="1.5" transform="translate(-69.78 145.77) rotate(-29.35)"/><circle class="cls-14" cx="270.8" cy="188.64" r="3.03" transform="translate(55.54 438.81) rotate(-84.15)"/><circle class="cls-14" cx="268.69" cy="192.03" r="2.41" transform="translate(50.27 439.74) rotate(-84.15)"/><circle class="cls-14" cx="269.19" cy="195" r="2.06" transform="translate(47.77 442.91) rotate(-84.15)"/><circle class="cls-14" cx="269.81" cy="198.36" r="1.76" transform="translate(44.98 446.54) rotate(-84.15)"/><circle class="cls-14" cx="268.94" cy="200.81" r="1.76" transform="translate(41.76 447.88) rotate(-84.15)"/><circle class="cls-14" cx="269.81" cy="203.66" r="1.5" transform="translate(-5.67 399.57) rotate(-72.46)"/><circle class="cls-14" cx="269.01" cy="206.1" r="1.5" transform="translate(-49.41 90.12) rotate(-17.44)"/><ellipse class="cls-14" cx="255.05" cy="188.64" rx="2.96" ry="3.03"/><ellipse class="cls-14" cx="256.77" cy="192.22" rx="2.36" ry="2.41"/><ellipse class="cls-14" cx="255.99" cy="195.13" rx="2.02" ry="2.06"/><ellipse class="cls-14" cx="255.05" cy="198.41" rx="1.72" ry="1.76"/><ellipse class="cls-14" cx="255.65" cy="200.94" rx="1.72" ry="1.76"/><path class="cls-14" d="M254.22,202.21a1.5,1.5,0,0,0-1.14,1.77,1.47,1.47,0,0,0,1.74,1.17,1.5,1.5,0,0,0,1.14-1.77A1.47,1.47,0,0,0,254.22,202.21Z"/><path class="cls-14" d="M253.7,205.6a1.51,1.51,0,0,0,.77,2,1.46,1.46,0,0,0,1.93-.79,1.51,1.51,0,0,0-.77-2A1.46,1.46,0,0,0,253.7,205.6Z"/><circle class="cls-15" cx="247.96" cy="188.64" r="3.03"/><circle class="cls-15" cx="248.96" cy="191.01" r="2.41"/><circle class="cls-15" cx="248.18" cy="193.07" r="2.06"/><circle class="cls-15" cx="248.41" cy="194.95" r="1.76" transform="translate(-21.93 31.76) rotate(-7.01)"/><circle class="cls-15" cx="248.96" cy="197.19" r="1.76" transform="translate(-62.15 133.33) rotate(-26.78)"/><circle class="cls-15" cx="249.45" cy="199.18" r="1.5" transform="translate(3.88 403.13) rotate(-78.32)"/><circle class="cls-15" cx="248.96" cy="201.58" r="1.5" transform="translate(-59.42 114.88) rotate(-23.29)"/><circle class="cls-15" cx="278.14" cy="188.64" r="3.03" transform="translate(62.69 446.58) rotate(-84.28)"/><circle class="cls-15" cx="278.89" cy="191.1" r="2.41" transform="translate(60.93 449.54) rotate(-84.28)"/><circle class="cls-15" cx="277.92" cy="193.07" r="2.06" transform="translate(58.09 450.34) rotate(-84.28)"/><circle class="cls-15" cx="277.96" cy="194.96" r="1.76" transform="translate(-4.29 6.27) rotate(-1.28)"/><circle class="cls-15" cx="278.28" cy="197.25" r="1.76" transform="translate(-52.29 113.16) rotate(-21.06)"/><circle class="cls-15" cx="278.57" cy="199.28" r="1.5" transform="matrix(0.3, -0.95, 0.95, 0.3, 5.07, 405.46)"/><circle class="cls-15" cx="277.84" cy="201.62" r="1.5" transform="translate(-47.9 93.27) rotate(-17.57)"/></svg>