<svg id="Layer_1" data-name="Layer 1" xmlns="http://www.w3.org/2000/svg" viewBox="0 0 300 300"><defs><style>.cls-1{fill:#ae883f;}.cls-10,.cls-13,.cls-2{fill:none;stroke-miterlimit:10;}.cls-2{stroke:#fddf89;stroke-width:20px;}.cls-3{fill:#fddf89;}.cls-4{fill:#e0af51;}.cls-5{fill:#d2ae58;}.cls-6{fill:#42210b;}.cls-7{fill:#4bc45b;}.cls-8{fill:#00465f;}.cls-9{fill:#a34721;}.cls-10{stroke:#42210b;stroke-width:3px;}.cls-11{fill:#c95829;}.cls-12{fill:#a64922;}.cls-13{stroke:#e0af51;stroke-width:5px;}.cls-14{font-size:12px;font-family:BodoniSvtyTwoSCITCTT-Book, Bodoni 72 Smallcaps;}.cls-14,.cls-15{fill:#092830;}.cls-15{font-size:9px;font-family:BodoniSvtyTwoOSITCTT-BookIt, Bodoni 72 Oldstyle;font-style:italic;}</style></defs><title>gallery</title><rect class="cls-1" width="300" height="300"/><path class="cls-2" d="M73.13,300V150s.15-75.27,75.27-75.27,75.11,75.11,75.11,75.11V300"/><rect class="cls-3" x="12.77" y="61.5" width="22.3" height="238.5"/><rect class="cls-4" x="14.81" y="61.5" width="2.16" height="238.5"/><rect class="cls-4" x="20.22" y="61.5" width="2.16" height="238.5"/><rect class="cls-4" x="25.63" y="61.5" width="2.16" height="238.5"/><rect class="cls-4" x="31.03" y="61.5" width="2.16" height="238.5"/><polygon class="cls-5" points="8.36 61.5 3.48 46.68 296.52 46.68 288.71 61.5 8.36 61.5"/><polygon class="cls-3" points="96.61 156.54 94.83 152.15 201.82 152.15 198.97 156.54 96.61 156.54"/><polygon class="cls-6" points="98.04 215.76 96.29 211.37 201.46 211.37 198.66 215.76 98.04 215.76"/><rect class="cls-7" x="83.28" y="163.88" width="130.19" height="37.75"/><rect class="cls-3" x="261.68" y="61.5" width="22.05" height="238.5"/><rect class="cls-4" x="263.51" y="61.5" width="2.16" height="238.5"/><rect class="cls-4" x="268.92" y="61.5" width="2.16" height="238.5"/><rect class="cls-4" x="274.33" y="61.5" width="2.16" height="238.5"/><rect class="cls-4" x="279.73" y="61.5" width="2.16" height="238.5"/><path class="cls-8" d="M143.14,96.32c-25.35,0-45.91,25-45.91,55.79h45.91Z"/><path class="cls-8" d="M153.51,96.32c25.35,0,45.91,25,45.91,55.79H153.51Z"/><rect class="cls-9" x="98.05" y="215.76" width="50.27" height="84.24"/><rect class="cls-9" x="148.32" y="215.76" width="50.27" height="84.24"/><line class="cls-10" x1="148.32" y1="300" x2="148.32" y2="215.76"/><rect class="cls-11" x="109.33" y="226.73" width="25.09" height="25.09"/><rect class="cls-11" x="161.35" y="226.73" width="25.09" height="25.09"/><rect class="cls-12" x="166.82" y="232.2" width="14.15" height="14.15"/><rect class="cls-11" x="109.33" y="265.63" width="25.09" height="25.09"/><rect class="cls-12" x="114.8" y="232.2" width="14.15" height="14.15"/><rect class="cls-12" x="114.8" y="271.1" width="14.15" height="14.15"/><rect class="cls-11" x="161.35" y="265.63" width="25.09" height="25.09"/><rect class="cls-12" x="166.82" y="271.1" width="14.15" height="14.15"/><path class="cls-13" d="M73.23,300V150s.15-75.27,75.27-75.27,75.11,75.11,75.11,75.11V300"/><text class="cls-14" transform="translate(91.68 180.07) scale(1.15 1)">mischa the exhibition </text><text class="cls-15" transform="translate(112.81 193.77) scale(1.15 1)">Now at the gallery</text><circle class="cls-3" cx="57.7" cy="80.79" r="11.3"/><circle class="cls-1" cx="57.7" cy="80.79" r="1.69"/><ellipse class="cls-1" cx="57.7" cy="74.32" rx="0.95" ry="2.75"/><ellipse class="cls-1" cx="57.7" cy="87.76" rx="0.95" ry="2.75"/><ellipse class="cls-1" cx="64.42" cy="80.79" rx="2.75" ry="0.95"/><ellipse class="cls-1" cx="50.98" cy="80.79" rx="2.75" ry="0.95"/><circle class="cls-3" cx="243.6" cy="81.74" r="11.3"/><circle class="cls-1" cx="243.6" cy="81.74" r="1.69"/><ellipse class="cls-1" cx="243.6" cy="75.27" rx="0.95" ry="2.75"/><ellipse class="cls-1" cx="243.6" cy="88.71" rx="0.95" ry="2.75"/><ellipse class="cls-1" cx="250.32" cy="81.74" rx="2.75" ry="0.95"/><ellipse class="cls-1" cx="236.88" cy="81.74" rx="2.75" ry="0.95"/><polygon class="cls-3" points="286.12 55.59 10.04 55.59 9.04 52.58 288.12 52.58 286.12 55.59"/></svg>