<svg id="Layer_1" data-name="Layer 1" xmlns="http://www.w3.org/2000/svg" viewBox="0 0 550.87 300"><defs><style>.cls-1{fill:#ae883f;}.cls-10,.cls-13,.cls-2{fill:none;stroke-miterlimit:10;}.cls-2{stroke:#fddf89;stroke-width:20px;}.cls-3{fill:#fddf89;}.cls-4{fill:#e0af51;}.cls-5{fill:#d2ae58;}.cls-6{fill:#42210b;}.cls-7{fill:#4bc45b;}.cls-8{fill:#00465f;}.cls-9{fill:#a34721;}.cls-10{stroke:#42210b;stroke-width:3px;}.cls-11{fill:#c95829;}.cls-12{fill:#a64922;}.cls-13{stroke:#e0af51;stroke-width:5px;}.cls-14{font-size:12px;font-family:BodoniSvtyTwoSCITCTT-Book, Bodoni 72 Smallcaps;}.cls-14,.cls-15{fill:#092830;}.cls-15{font-size:9px;font-family:BodoniSvtyTwoOSITCTT-BookIt, Bodoni 72 Oldstyle;font-style:italic;}</style></defs><title>large-gallery</title><rect class="cls-1" width="550.87" height="300"/><path class="cls-2" d="M184.15,300V150s.15-75.27,75.27-75.27,75.11,75.11,75.11,75.11V300"/><rect class="cls-3" x="123.79" y="61.5" width="22.3" height="238.5"/><rect class="cls-4" x="125.83" y="61.5" width="2.16" height="238.5"/><rect class="cls-4" x="131.24" y="61.5" width="2.16" height="238.5"/><rect class="cls-4" x="136.64" y="61.5" width="2.16" height="238.5"/><rect class="cls-4" x="142.05" y="61.5" width="2.16" height="238.5"/><rect class="cls-3" x="44.44" y="61.5" width="22.3" height="238.5"/><rect class="cls-4" x="46.48" y="61.5" width="2.16" height="238.5"/><rect class="cls-4" x="51.89" y="61.5" width="2.16" height="238.5"/><rect class="cls-4" x="57.3" y="61.5" width="2.16" height="238.5"/><rect class="cls-4" x="62.7" y="61.5" width="2.16" height="238.5"/><rect class="cls-3" x="470.74" y="61.5" width="22.3" height="238.5"/><rect class="cls-4" x="472.77" y="61.5" width="2.16" height="238.5"/><rect class="cls-4" x="478.18" y="61.5" width="2.16" height="238.5"/><rect class="cls-4" x="483.59" y="61.5" width="2.16" height="238.5"/><rect class="cls-4" x="489" y="61.5" width="2.16" height="238.5"/><polygon class="cls-5" points="119.38 61.5 114.5 46.68 407.54 46.68 399.72 61.5 119.38 61.5"/><polygon class="cls-3" points="207.63 156.54 205.85 152.15 312.84 152.15 309.98 156.54 207.63 156.54"/><polygon class="cls-6" points="209.06 215.76 207.31 211.37 312.48 211.37 309.68 215.76 209.06 215.76"/><rect class="cls-7" x="194.3" y="163.88" width="130.19" height="37.75"/><rect class="cls-3" x="372.69" y="61.5" width="22.05" height="238.5"/><rect class="cls-4" x="374.53" y="61.5" width="2.16" height="238.5"/><rect class="cls-4" x="379.94" y="61.5" width="2.16" height="238.5"/><rect class="cls-4" x="385.34" y="61.5" width="2.16" height="238.5"/><rect class="cls-4" x="390.75" y="61.5" width="2.16" height="238.5"/><path class="cls-8" d="M254.16,96.32c-25.35,0-45.91,25-45.91,55.79h45.91Z"/><path class="cls-8" d="M264.52,96.32c25.35,0,45.91,25,45.91,55.79H264.52Z"/><rect class="cls-9" x="209.07" y="215.76" width="50.27" height="84.24"/><rect class="cls-9" x="259.34" y="215.76" width="50.27" height="84.24"/><line class="cls-10" x1="259.34" y1="300" x2="259.34" y2="215.76"/><rect class="cls-11" x="220.35" y="226.73" width="25.09" height="25.09"/><rect class="cls-11" x="272.37" y="226.73" width="25.09" height="25.09"/><rect class="cls-12" x="277.84" y="232.2" width="14.15" height="14.15"/><rect class="cls-11" x="220.35" y="265.63" width="25.09" height="25.09"/><rect class="cls-12" x="225.82" y="232.2" width="14.15" height="14.15"/><rect class="cls-12" x="225.82" y="271.1" width="14.15" height="14.15"/><rect class="cls-11" x="272.37" y="265.63" width="25.09" height="25.09"/><rect class="cls-12" x="277.84" y="271.1" width="14.15" height="14.15"/><path class="cls-13" d="M184.25,300V150s.15-75.27,75.27-75.27,75.11,75.11,75.11,75.11V300"/><text class="cls-14" transform="translate(202.7 180.07) scale(1.15 1)">mischa the exhibition </text><text class="cls-15" transform="translate(223.83 193.77) scale(1.15 1)">Now at the gallery</text><circle class="cls-3" cx="168.72" cy="80.79" r="11.3"/><circle class="cls-1" cx="168.72" cy="80.79" r="1.69"/><ellipse class="cls-1" cx="168.72" cy="74.32" rx="0.95" ry="2.75"/><ellipse class="cls-1" cx="168.72" cy="87.76" rx="0.95" ry="2.75"/><ellipse class="cls-1" cx="175.44" cy="80.79" rx="2.75" ry="0.95"/><ellipse class="cls-1" cx="162" cy="80.79" rx="2.75" ry="0.95"/><circle class="cls-3" cx="354.61" cy="81.74" r="11.3"/><circle class="cls-1" cx="354.61" cy="81.74" r="1.69"/><ellipse class="cls-1" cx="354.61" cy="75.27" rx="0.95" ry="2.75"/><ellipse class="cls-1" cx="354.61" cy="88.71" rx="0.95" ry="2.75"/><ellipse class="cls-1" cx="361.33" cy="81.74" rx="2.75" ry="0.95"/><ellipse class="cls-1" cx="347.89" cy="81.74" rx="2.75" ry="0.95"/><polygon class="cls-3" points="397.14 55.59 121.06 55.59 120.06 52.58 399.14 52.58 397.14 55.59"/></svg>