<svg xmlns="http://www.w3.org/2000/svg" xmlns:xlink="http://www.w3.org/1999/xlink" viewBox="0 0 445.1 445.08"><defs><style>.a{fill:none;}.b{fill:#4da04d;}.c{fill:#4d4d4d;}.d{fill:#91551d;}.e{fill:#805329;}.f{fill:#165420;}.g{fill:#1f6026;}.h{fill:#175922;}.i{fill:#829982;}.j{opacity:0.4;}.k{fill:#5f705f;}.l{fill:#613b17;}.m{fill:#ca8345;}.n{clip-path:url(#a);}.o{fill:#74004b;}.p{fill:#eda200;}.q{fill:#007aed;}</style><clipPath id="a"><rect class="a" x="201.86" y="257.65" width="39.46" height="38.27"/></clipPath></defs><title>park</title><rect class="b" y="-6.67" width="451.75" height="451.75"/><rect class="c" x="80.41" y="172.8" width="2.92" height="30.87"/><rect class="c" x="139.81" y="171.85" width="2.59" height="31.81"/><rect class="d" x="75.42" y="186.36" width="71.98" height="3.75"/><rect class="c" x="81.29" y="190.11" width="61.1" height="2.76"/><rect class="d" x="77.55" y="169.69" width="67.71" height="4.33"/><rect class="d" x="77.55" y="174.76" width="67.71" height="4.33"/><rect class="d" x="77.55" y="179.67" width="67.71" height="4.33"/><rect class="c" x="303.68" y="341.77" width="2.92" height="30.87"/><rect class="c" x="363.07" y="340.83" width="2.59" height="31.81"/><rect class="d" x="298.68" y="355.33" width="71.98" height="3.75"/><rect class="c" x="304.55" y="359.08" width="61.1" height="2.76"/><rect class="d" x="300.82" y="338.66" width="67.71" height="4.33"/><rect class="d" x="300.82" y="343.73" width="67.71" height="4.33"/><rect class="d" x="300.82" y="348.64" width="67.71" height="4.33"/><polygon class="e" points="268 184.96 245.02 184.96 245.02 105.89 266.94 105.89 268 184.96"/><path class="f" d="M291.6,95.1c-2.11,12.15-16.8,19.74-32.81,16.94S231.5,97.11,233.61,85,250.41,65.22,266.42,68,293.7,82.94,291.6,95.1Z"/><path class="g" d="M244.78,103.77c-1.27,9.61-12.56,16-25.23,14.36s-21.91-10.84-20.64-20.46,12.56-16,25.23-14.36S246,94.15,244.78,103.77Z"/><path class="g" d="M263.07,112.15c-1.27,9.61-12.56,16-25.23,14.36s-21.91-10.84-20.64-20.46,12.56-16,25.23-14.36S264.33,102.53,263.07,112.15Z"/><path class="h" d="M304.27,114.17c-2.11,12.15-16.8,19.74-32.81,16.94S244.18,116.18,246.28,104s16.8-19.74,32.81-16.94S306.38,102,304.27,114.17Z"/><path class="f" d="M269.12,91.17c-2.11,12.15-16.8,19.74-32.81,16.94S209,93.18,211.14,81s16.8-19.74,32.81-16.94S271.23,79,269.12,91.17Z"/><polygon class="e" points="98.85 371.85 75.88 371.85 75.88 292.78 97.79 292.78 98.85 371.85"/><path class="f" d="M122.45,282c-2.11,12.15-16.8,19.74-32.81,16.94S62.35,284,64.46,271.84s16.8-19.74,32.81-16.94S124.56,269.83,122.45,282Z"/><path class="g" d="M75.64,290.66c-1.27,9.61-12.56,16-25.23,14.36S28.5,294.18,29.76,284.57s12.56-16,25.23-14.36S76.9,281,75.64,290.66Z"/><path class="g" d="M93.92,299c-1.27,9.61-12.56,16-25.23,14.36S46.78,302.56,48,292.94s12.56-16,25.23-14.36S95.19,289.42,93.92,299Z"/><path class="h" d="M135.13,301.06C133,313.22,118.33,320.8,102.32,318S75,303.07,77.14,290.92s16.8-19.74,32.81-16.94S137.23,288.91,135.13,301.06Z"/><path class="f" d="M100,278.06c-2.11,12.15-16.8,19.74-32.81,16.94S39.88,280.07,42,267.91,58.79,248.18,74.8,251,102.09,265.9,100,278.06Z"/><rect class="i" x="1" y="203.67" width="449.75" height="21.5"/><rect class="i" x="3" y="371.74" width="449.75" height="21.5"/><polygon class="e" points="394.66 334.78 371.69 334.78 371.69 255.7 393.6 255.7 394.66 334.78"/><path class="f" d="M418.26,244.91c-2.11,12.15-16.8,19.74-32.81,16.94s-27.29-14.92-25.18-27.08,16.8-19.74,32.81-16.94S420.37,232.76,418.26,244.91Z"/><path class="g" d="M371.45,253.58c-1.27,9.61-12.56,16-25.23,14.36s-21.91-10.84-20.64-20.46,12.56-16,25.23-14.36S372.71,244,371.45,253.58Z"/><path class="g" d="M389.73,262c-1.27,9.61-12.56,16-25.23,14.36s-21.91-10.84-20.64-20.46,12.56-16,25.23-14.36S391,252.35,389.73,262Z"/><path class="h" d="M430.93,264c-2.11,12.15-16.8,19.74-32.81,16.94S370.84,266,372.95,253.84s16.8-19.74,32.81-16.94S433,251.83,430.93,264Z"/><path class="f" d="M395.79,241c-2.11,12.15-16.8,19.74-32.81,16.94S335.69,243,337.8,230.84s16.8-19.74,32.81-16.94S397.89,228.83,395.79,241Z"/><rect class="i" x="142.39" y="225.17" width="132.88" height="146.57"/><g class="j"><rect class="k" x="147.62" y="227.11" width="19.96" height="20.05"/><rect class="k" x="173.24" y="227.11" width="19.96" height="20.05"/><rect class="k" x="198.86" y="227.11" width="19.96" height="20.05"/><rect class="k" x="224.48" y="227.11" width="19.96" height="20.05"/><rect class="k" x="250.1" y="227.11" width="19.96" height="20.05"/></g><g class="j"><rect class="k" x="147.62" y="251.75" width="19.96" height="20.05"/><rect class="k" x="173.24" y="251.75" width="19.96" height="20.05"/><rect class="k" x="198.86" y="251.75" width="19.96" height="20.05"/><rect class="k" x="224.48" y="251.75" width="19.96" height="20.05"/><rect class="k" x="250.1" y="251.75" width="19.96" height="20.05"/></g><g class="j"><rect class="k" x="147.62" y="276.38" width="19.96" height="20.05"/><rect class="k" x="173.24" y="276.38" width="19.96" height="20.05"/><rect class="k" x="250.1" y="276.38" width="19.96" height="20.05"/></g><g class="j"><rect class="k" x="147.62" y="301.02" width="19.96" height="20.05"/><rect class="k" x="173.24" y="301.02" width="19.96" height="20.05"/><rect class="k" x="198.37" y="301.02" width="19.96" height="20.05"/><rect class="k" x="224.48" y="301.02" width="19.96" height="20.05"/><rect class="k" x="250.1" y="301.02" width="19.96" height="20.05"/></g><g class="j"><rect class="k" x="147.62" y="325.65" width="19.96" height="20.05"/><rect class="k" x="173.24" y="325.65" width="19.96" height="20.05"/><rect class="k" x="198.86" y="325.65" width="19.96" height="20.05"/><rect class="k" x="224.48" y="325.65" width="19.96" height="20.05"/><rect class="k" x="250.1" y="325.65" width="19.96" height="20.05"/></g><g class="j"><rect class="k" x="147.62" y="350.29" width="19.96" height="20.05"/><rect class="k" x="173.24" y="350.29" width="19.96" height="20.05"/><rect class="k" x="198.86" y="350.29" width="19.96" height="20.05"/><rect class="k" x="224.48" y="350.29" width="19.96" height="20.05"/><rect class="k" x="250.1" y="350.29" width="19.96" height="20.05"/></g><rect class="l" x="199.87" y="255.75" width="43.15" height="41.69"/><path class="m" d="M241.52,257.25v38.68H201.37V257.25h40.15m3-3H198.37v44.68h46.15V254.25Z"/><g class="n"><ellipse class="o" cx="197.85" cy="217.84" rx="1.37" ry="1.33"/><ellipse class="o" cx="198.28" cy="228.21" rx="1.37" ry="1.33"/><ellipse class="o" cx="202.42" cy="233.26" rx="1.37" ry="1.33"/><ellipse class="o" cx="206.04" cy="227.52" rx="1.37" ry="1.33"/><ellipse class="o" cx="206.04" cy="239.26" rx="1.37" ry="1.33"/><path class="o" d="M202.49,226.45a1.4,1.4,0,0,1-1.94.07,1.31,1.31,0,0,1-.07-1.88,1.4,1.4,0,0,1,1.94-.07A1.31,1.31,0,0,1,202.49,226.45Z"/><path class="o" d="M206.86,231.8a1.34,1.34,0,0,1-1.23,1.46,1.36,1.36,0,0,1-1.5-1.2,1.34,1.34,0,0,1,1.23-1.46A1.36,1.36,0,0,1,206.86,231.8Z"/><path class="o" d="M201.07,221.15a1.34,1.34,0,0,1,1.1-1.56,1.37,1.37,0,0,1,1.6,1.06,1.34,1.34,0,0,1-1.1,1.56A1.37,1.37,0,0,1,201.07,221.15Z"/><path class="o" d="M198.7,222.93a1.38,1.38,0,0,1-1.73-.86,1.33,1.33,0,0,1,.89-1.68,1.38,1.38,0,0,1,1.73.86A1.33,1.33,0,0,1,198.7,222.93Z"/><ellipse class="o" cx="198.32" cy="235.93" rx="1.37" ry="1.33"/><ellipse class="o" cx="198.75" cy="246.3" rx="1.37" ry="1.33"/><ellipse class="o" cx="202.88" cy="251.36" rx="1.37" ry="1.33"/><ellipse class="o" cx="206.51" cy="245.61" rx="1.37" ry="1.33"/><ellipse class="o" cx="206.51" cy="257.35" rx="1.37" ry="1.33"/><path class="o" d="M203,244.54a1.4,1.4,0,0,1-1.94.07,1.31,1.31,0,0,1-.07-1.88,1.4,1.4,0,0,1,1.94-.07A1.31,1.31,0,0,1,203,244.54Z"/><path class="o" d="M207.32,249.89a1.34,1.34,0,0,1-1.23,1.46,1.36,1.36,0,0,1-1.5-1.2,1.34,1.34,0,0,1,1.23-1.46A1.36,1.36,0,0,1,207.32,249.89Z"/><path class="o" d="M201.53,239.25a1.34,1.34,0,0,1,1.1-1.56,1.37,1.37,0,0,1,1.6,1.06,1.34,1.34,0,0,1-1.1,1.56A1.37,1.37,0,0,1,201.53,239.25Z"/><path class="o" d="M199.17,241a1.38,1.38,0,0,1-1.73-.86,1.33,1.33,0,0,1,.89-1.68,1.38,1.38,0,0,1,1.73.86A1.33,1.33,0,0,1,199.17,241Z"/><ellipse class="o" cx="209.26" cy="251.36" rx="1.37" ry="1.33"/><ellipse class="o" cx="229.24" cy="283.54" rx="1.37" ry="1.33"/><ellipse class="o" cx="213.82" cy="266.78" rx="1.37" ry="1.33"/><ellipse class="o" cx="217.45" cy="261.04" rx="1.37" ry="1.33"/><ellipse class="o" cx="217.45" cy="272.78" rx="1.37" ry="1.33"/><path class="o" d="M213.9,260A1.4,1.4,0,0,1,212,260a1.31,1.31,0,0,1-.07-1.88,1.4,1.4,0,0,1,1.94-.07A1.31,1.31,0,0,1,213.9,260Z"/><path class="o" d="M218.26,265.32a1.34,1.34,0,0,1-1.23,1.46,1.36,1.36,0,0,1-1.5-1.2,1.34,1.34,0,0,1,1.23-1.46A1.36,1.36,0,0,1,218.26,265.32Z"/><path class="o" d="M212.47,254.67a1.34,1.34,0,0,1,1.1-1.56,1.37,1.37,0,0,1,1.6,1.06,1.34,1.34,0,0,1-1.1,1.56A1.37,1.37,0,0,1,212.47,254.67Z"/><path class="o" d="M210.11,256.45a1.38,1.38,0,0,1-1.73-.86,1.33,1.33,0,0,1,.89-1.68,1.38,1.38,0,0,1,1.73.86A1.33,1.33,0,0,1,210.11,256.45Z"/><ellipse class="o" cx="201.86" cy="257.4" rx="1.37" ry="1.33"/><ellipse class="o" cx="202.29" cy="267.77" rx="1.37" ry="1.33"/><ellipse class="o" cx="206.42" cy="272.83" rx="1.37" ry="1.33"/><ellipse class="o" cx="210.05" cy="267.08" rx="1.37" ry="1.33"/><ellipse class="o" cx="210.05" cy="278.83" rx="1.37" ry="1.33"/><path class="o" d="M206.5,266a1.4,1.4,0,0,1-1.94.07,1.31,1.31,0,0,1-.07-1.88,1.4,1.4,0,0,1,1.94-.07A1.31,1.31,0,0,1,206.5,266Z"/><path class="o" d="M210.87,271.36a1.34,1.34,0,0,1-1.23,1.46,1.36,1.36,0,0,1-1.5-1.2,1.34,1.34,0,0,1,1.23-1.46A1.36,1.36,0,0,1,210.87,271.36Z"/><path class="o" d="M226,287.1a1.34,1.34,0,0,1,1.1-1.56,1.37,1.37,0,0,1,1.6,1.06,1.34,1.34,0,0,1-1.1,1.56A1.37,1.37,0,0,1,226,287.1Z"/><path class="o" d="M202.71,262.5a1.38,1.38,0,0,1-1.73-.86,1.33,1.33,0,0,1,.89-1.68,1.38,1.38,0,0,1,1.73.86A1.33,1.33,0,0,1,202.71,262.5Z"/><ellipse class="o" cx="214.73" cy="274.5" rx="1.37" ry="1.33"/><ellipse class="o" cx="215.16" cy="284.87" rx="1.37" ry="1.33"/><ellipse class="o" cx="220.09" cy="292.48" rx="1.37" ry="1.33"/><ellipse class="o" cx="222.92" cy="284.18" rx="1.37" ry="1.33"/><ellipse class="o" cx="224.09" cy="289.95" rx="1.37" ry="1.33"/><path class="o" d="M219.37,283.12a1.4,1.4,0,0,1-1.94.07,1.31,1.31,0,0,1-.07-1.88,1.4,1.4,0,0,1,1.94-.07A1.31,1.31,0,0,1,219.37,283.12Z"/><path class="o" d="M232.86,293.64a1.34,1.34,0,0,1-1.23,1.46,1.36,1.36,0,0,1-1.5-1.2,1.34,1.34,0,0,1,1.23-1.46A1.36,1.36,0,0,1,232.86,293.64Z"/><path class="o" d="M217.94,277.82a1.34,1.34,0,0,1,1.1-1.56,1.37,1.37,0,0,1,1.6,1.06,1.34,1.34,0,0,1-1.1,1.56A1.37,1.37,0,0,1,217.94,277.82Z"/><path class="o" d="M215.58,279.6a1.38,1.38,0,0,1-1.73-.86,1.33,1.33,0,0,1,.89-1.68,1.38,1.38,0,0,1,1.73.86A1.33,1.33,0,0,1,215.58,279.6Z"/><ellipse class="o" cx="210.87" cy="289.04" rx="1.37" ry="1.33"/><ellipse class="o" cx="208.78" cy="300.32" rx="1.37" ry="1.33"/><ellipse class="o" cx="212.92" cy="305.38" rx="1.37" ry="1.33"/><ellipse class="o" cx="217.36" cy="294.36" rx="1.37" ry="1.33"/><ellipse class="o" cx="216.54" cy="311.38" rx="1.37" ry="1.33"/><path class="o" d="M213.9,296.6a1.4,1.4,0,0,1-1.94.07,1.31,1.31,0,0,1-.07-1.88,1.4,1.4,0,0,1,1.94-.07A1.31,1.31,0,0,1,213.9,296.6Z"/><path class="o" d="M217.36,303.91a1.34,1.34,0,0,1-1.23,1.46,1.36,1.36,0,0,1-1.5-1.2,1.34,1.34,0,0,1,1.23-1.46A1.36,1.36,0,0,1,217.36,303.91Z"/><path class="o" d="M212.94,291.39a1.34,1.34,0,0,1,1.1-1.56,1.37,1.37,0,0,1,1.6,1.06,1.34,1.34,0,0,1-1.1,1.56A1.37,1.37,0,0,1,212.94,291.39Z"/><path class="o" d="M209.2,295a1.38,1.38,0,0,1-1.73-.86,1.33,1.33,0,0,1,.89-1.68,1.38,1.38,0,0,1,1.73.86A1.33,1.33,0,0,1,209.2,295Z"/><ellipse class="o" cx="237.87" cy="273.17" rx="1.37" ry="1.33"/><ellipse class="o" cx="197.37" cy="287.42" rx="1.37" ry="1.33"/><ellipse class="o" cx="201.51" cy="292.48" rx="1.37" ry="1.33"/><ellipse class="o" cx="208.84" cy="285.52" rx="1.37" ry="1.33"/><ellipse class="o" cx="205.14" cy="298.47" rx="1.37" ry="1.33"/><path class="o" d="M206.5,288.33a1.4,1.4,0,0,1-1.94.07,1.31,1.31,0,0,1-.07-1.88,1.4,1.4,0,0,1,1.94-.07A1.31,1.31,0,0,1,206.5,288.33Z"/><path class="o" d="M206,291a1.34,1.34,0,0,1-1.23,1.46,1.36,1.36,0,0,1-1.5-1.2,1.34,1.34,0,0,1,1.23-1.46A1.36,1.36,0,0,1,206,291Z"/><path class="o" d="M205.07,278.57a1.34,1.34,0,0,1,1.1-1.56,1.37,1.37,0,0,1,1.6,1.06,1.34,1.34,0,0,1-1.1,1.56A1.37,1.37,0,0,1,205.07,278.57Z"/><path class="o" d="M203.3,282.14a1.38,1.38,0,0,1-1.73-.86,1.33,1.33,0,0,1,.89-1.68,1.38,1.38,0,0,1,1.73.86A1.33,1.33,0,0,1,203.3,282.14Z"/><ellipse class="o" cx="221" cy="302" rx="1.37" ry="1.33"/><ellipse class="o" cx="221.43" cy="312.37" rx="1.37" ry="1.33"/><ellipse class="o" cx="225.56" cy="317.42" rx="1.37" ry="1.33"/><ellipse class="o" cx="229.19" cy="311.68" rx="1.37" ry="1.33"/><ellipse class="o" cx="229.19" cy="323.42" rx="1.37" ry="1.33"/><path class="o" d="M225.63,310.61a1.4,1.4,0,0,1-1.94.07,1.31,1.31,0,0,1-.07-1.88,1.4,1.4,0,0,1,1.94-.07A1.31,1.31,0,0,1,225.63,310.61Z"/><path class="o" d="M230,316a1.34,1.34,0,0,1-1.23,1.46,1.36,1.36,0,0,1-1.5-1.2,1.34,1.34,0,0,1,1.23-1.46A1.36,1.36,0,0,1,230,316Z"/><path class="o" d="M224.21,305.31a1.34,1.34,0,0,1,1.1-1.56,1.37,1.37,0,0,1,1.6,1.06,1.34,1.34,0,0,1-1.1,1.56A1.37,1.37,0,0,1,224.21,305.31Z"/><path class="o" d="M221.85,307.09a1.38,1.38,0,0,1-1.73-.86,1.33,1.33,0,0,1,.89-1.68,1.38,1.38,0,0,1,1.73.86A1.33,1.33,0,0,1,221.85,307.09Z"/><ellipse class="o" cx="230.94" cy="256.32" rx="1.37" ry="1.33"/><ellipse class="o" cx="235.62" cy="252" rx="1.37" ry="1.33"/><ellipse class="o" cx="236.05" cy="262.37" rx="1.37" ry="1.33"/><ellipse class="o" cx="240.18" cy="267.42" rx="1.37" ry="1.33"/><ellipse class="o" cx="243.81" cy="261.68" rx="1.37" ry="1.33"/><ellipse class="o" cx="243.6" cy="272.6" rx="1.37" ry="1.33"/><path class="o" d="M240.25,260.61a1.4,1.4,0,0,1-1.94.07,1.31,1.31,0,0,1-.07-1.88,1.4,1.4,0,0,1,1.94-.07A1.31,1.31,0,0,1,240.25,260.61Z"/><path class="o" d="M244.62,266a1.34,1.34,0,0,1-1.23,1.46,1.36,1.36,0,0,1-1.5-1.2,1.34,1.34,0,0,1,1.23-1.46A1.36,1.36,0,0,1,244.62,266Z"/><path class="o" d="M238.83,255.31a1.34,1.34,0,0,1,1.1-1.56,1.37,1.37,0,0,1,1.6,1.06,1.34,1.34,0,0,1-1.1,1.56A1.37,1.37,0,0,1,238.83,255.31Z"/><path class="o" d="M236.47,257.09a1.38,1.38,0,0,1-1.73-.86,1.33,1.33,0,0,1,.89-1.68,1.38,1.38,0,0,1,1.73.86A1.33,1.33,0,0,1,236.47,257.09Z"/><ellipse class="o" cx="229.24" cy="267.44" rx="1.37" ry="1.33"/><ellipse class="o" cx="229.67" cy="277.81" rx="1.37" ry="1.33"/><ellipse class="o" cx="233.8" cy="282.87" rx="1.37" ry="1.33"/><ellipse class="o" cx="237.43" cy="277.12" rx="1.37" ry="1.33"/><ellipse class="o" cx="237.43" cy="288.87" rx="1.37" ry="1.33"/><path class="o" d="M233.87,276.06a1.4,1.4,0,0,1-1.94.07,1.31,1.31,0,0,1-.07-1.88,1.4,1.4,0,0,1,1.94-.07A1.31,1.31,0,0,1,233.87,276.06Z"/><path class="o" d="M238.24,281.41a1.34,1.34,0,0,1-1.23,1.46,1.36,1.36,0,0,1-1.5-1.2,1.34,1.34,0,0,1,1.23-1.46A1.36,1.36,0,0,1,238.24,281.41Z"/><path class="o" d="M232.45,270.76a1.34,1.34,0,0,1,1.1-1.56,1.37,1.37,0,0,1,1.6,1.06,1.34,1.34,0,0,1-1.1,1.56A1.37,1.37,0,0,1,232.45,270.76Z"/><path class="o" d="M230.09,272.54a1.38,1.38,0,0,1-1.73-.86,1.33,1.33,0,0,1,.89-1.68,1.38,1.38,0,0,1,1.73.86A1.33,1.33,0,0,1,230.09,272.54Z"/><ellipse class="o" cx="217.83" cy="254.54" rx="1.37" ry="1.33"/><ellipse class="o" cx="228.29" cy="260.39" rx="1.37" ry="1.33"/><ellipse class="o" cx="222.39" cy="269.97" rx="1.37" ry="1.33"/><ellipse class="o" cx="226.02" cy="264.22" rx="1.37" ry="1.33"/><ellipse class="o" cx="226.02" cy="275.97" rx="1.37" ry="1.33"/><path class="o" d="M222.47,263.16a1.4,1.4,0,0,1-1.94.07,1.31,1.31,0,0,1-.07-1.88,1.4,1.4,0,0,1,1.94-.07A1.31,1.31,0,0,1,222.47,263.16Z"/><path class="o" d="M226.84,268.5A1.34,1.34,0,0,1,225.6,270a1.36,1.36,0,0,1-1.5-1.2,1.34,1.34,0,0,1,1.23-1.46A1.36,1.36,0,0,1,226.84,268.5Z"/><path class="o" d="M221,257.86a1.34,1.34,0,0,1,1.1-1.56,1.37,1.37,0,0,1,1.6,1.06,1.34,1.34,0,0,1-1.1,1.56A1.37,1.37,0,0,1,221,257.86Z"/><path class="o" d="M218.68,259.64a1.38,1.38,0,0,1-1.73-.86,1.33,1.33,0,0,1,.89-1.68,1.38,1.38,0,0,1,1.73.86A1.33,1.33,0,0,1,218.68,259.64Z"/><ellipse class="o" cx="241.88" cy="279.49" rx="1.37" ry="1.33"/><ellipse class="o" cx="242.31" cy="289.86" rx="1.37" ry="1.33"/><path class="o" d="M246.52,288.1a1.4,1.4,0,0,1-1.94.07,1.31,1.31,0,0,1-.07-1.88,1.4,1.4,0,0,1,1.94-.07A1.31,1.31,0,0,1,246.52,288.1Z"/><path class="o" d="M245.1,282.81a1.34,1.34,0,0,1,1.1-1.56,1.37,1.37,0,0,1,1.6,1.06,1.34,1.34,0,0,1-1.1,1.56A1.37,1.37,0,0,1,245.1,282.81Z"/><path class="o" d="M242.73,284.58a1.38,1.38,0,0,1-1.73-.86,1.33,1.33,0,0,1,.89-1.68,1.38,1.38,0,0,1,1.73.86A1.33,1.33,0,0,1,242.73,284.58Z"/><path class="o" d="M271,229.06a1.4,1.4,0,0,1-1.94-.06,1.31,1.31,0,0,1,.06-1.88,1.4,1.4,0,0,1,1.94.06A1.31,1.31,0,0,1,271,229.06Z"/><path class="o" d="M263.51,236.46a1.4,1.4,0,0,1-1.94-.06,1.31,1.31,0,0,1,.06-1.88,1.4,1.4,0,0,1,1.94.06A1.31,1.31,0,0,1,263.51,236.46Z"/><path class="o" d="M262.54,242.85a1.4,1.4,0,0,1-1.94-.06,1.31,1.31,0,0,1,.06-1.88,1.4,1.4,0,0,1,1.94.06A1.31,1.31,0,0,1,262.54,242.85Z"/><path class="o" d="M269.34,241.48a1.4,1.4,0,0,1-1.94-.06,1.31,1.31,0,0,1,.06-1.88,1.4,1.4,0,0,1,1.94.06A1.31,1.31,0,0,1,269.34,241.48Z"/><path class="o" d="M260.51,249.52a1.4,1.4,0,0,1-1.94-.06,1.31,1.31,0,0,1,.06-1.88,1.4,1.4,0,0,1,1.94.06A1.31,1.31,0,0,1,260.51,249.52Z"/><ellipse class="o" cx="266.76" cy="235.93" rx="1.37" ry="1.33" transform="translate(-0.85 0.97) rotate(-0.21)"/><path class="o" d="M265.74,244a1.4,1.4,0,0,1-1.94.12,1.31,1.31,0,0,1-.13-1.88,1.4,1.4,0,0,1,1.94-.12A1.31,1.31,0,0,1,265.74,244Z"/><path class="o" d="M269.78,232.63a1.4,1.4,0,0,1,1.92-.29,1.31,1.31,0,0,1,.3,1.86,1.4,1.4,0,0,1-1.92.29A1.31,1.31,0,0,1,269.78,232.63Z"/><path class="o" d="M266.82,232.18a1.31,1.31,0,0,1-.54-1.81,1.4,1.4,0,0,1,1.87-.52,1.31,1.31,0,0,1,.54,1.81A1.4,1.4,0,0,1,266.82,232.18Z"/><path class="o" d="M246.57,248.91a1.4,1.4,0,0,1-1.94-.06,1.31,1.31,0,0,1,.06-1.88,1.4,1.4,0,0,1,1.94.06A1.31,1.31,0,0,1,246.57,248.91Z"/><path class="o" d="M253.37,247.54a1.4,1.4,0,0,1-1.94-.06,1.31,1.31,0,0,1,.06-1.88,1.4,1.4,0,0,1,1.94.06A1.31,1.31,0,0,1,253.37,247.54Z"/><path class="o" d="M244.54,255.58a1.4,1.4,0,0,1-1.94-.06,1.31,1.31,0,0,1,.06-1.88,1.4,1.4,0,0,1,1.94.06A1.31,1.31,0,0,1,244.54,255.58Z"/><ellipse class="o" cx="250.79" cy="241.99" rx="1.37" ry="1.33" transform="translate(-0.87 0.91) rotate(-0.21)"/><path class="o" d="M249.76,250.07a1.4,1.4,0,0,1-1.94.12,1.31,1.31,0,0,1-.13-1.88,1.4,1.4,0,0,1,1.94-.12A1.31,1.31,0,0,1,249.76,250.07Z"/><path class="o" d="M253.8,238.69a1.4,1.4,0,0,1,1.92-.29,1.31,1.31,0,0,1,.3,1.86,1.4,1.4,0,0,1-1.92.29A1.31,1.31,0,0,1,253.8,238.69Z"/><path class="o" d="M254.64,252.31a1.4,1.4,0,0,1-1.94-.06,1.31,1.31,0,0,1,.06-1.88,1.4,1.4,0,0,1,1.94.06A1.31,1.31,0,0,1,254.64,252.31Z"/><path class="o" d="M247.13,259.71a1.4,1.4,0,0,1-1.94-.06,1.31,1.31,0,0,1,.06-1.88,1.4,1.4,0,0,1,1.94.06A1.31,1.31,0,0,1,247.13,259.71Z"/><ellipse class="o" cx="202.29" cy="275.15" rx="1.37" ry="1.33" transform="translate(-0.99 0.73) rotate(-0.21)"/><path class="o" d="M253.4,255.88a1.4,1.4,0,0,1,1.92-.29,1.31,1.31,0,0,1,.3,1.86,1.4,1.4,0,0,1-1.92.29A1.31,1.31,0,0,1,253.4,255.88Z"/><path class="o" d="M250.45,255.42a1.31,1.31,0,0,1-.54-1.81,1.4,1.4,0,0,1,1.87-.52,1.31,1.31,0,0,1,.54,1.81A1.4,1.4,0,0,1,250.45,255.42Z"/><ellipse class="o" cx="275.39" cy="235.96" rx="1.37" ry="1.33"/><path class="o" d="M302.6,203.35a1.4,1.4,0,0,1-1.94-.06,1.31,1.31,0,0,1,.06-1.88,1.4,1.4,0,0,1,1.94.06A1.31,1.31,0,0,1,302.6,203.35Z"/><path class="o" d="M295.09,210.75a1.4,1.4,0,0,1-1.94-.06,1.31,1.31,0,0,1,.06-1.88,1.4,1.4,0,0,1,1.94.06A1.31,1.31,0,0,1,295.09,210.75Z"/><path class="o" d="M294.12,217.13a1.4,1.4,0,0,1-1.94-.06,1.31,1.31,0,0,1,.06-1.88,1.4,1.4,0,0,1,1.94.06A1.31,1.31,0,0,1,294.12,217.13Z"/><path class="o" d="M300.92,215.77a1.4,1.4,0,0,1-1.94-.06,1.31,1.31,0,0,1,.06-1.88,1.4,1.4,0,0,1,1.94.06A1.31,1.31,0,0,1,300.92,215.77Z"/><path class="o" d="M292.1,223.8a1.4,1.4,0,0,1-1.94-.06,1.31,1.31,0,0,1,.06-1.88,1.4,1.4,0,0,1,1.94.06A1.31,1.31,0,0,1,292.1,223.8Z"/><ellipse class="o" cx="298.35" cy="210.21" rx="1.37" ry="1.33" transform="translate(-0.76 1.08) rotate(-0.21)"/><path class="o" d="M297.32,218.3a1.4,1.4,0,0,1-1.94.12,1.31,1.31,0,0,1-.13-1.88,1.4,1.4,0,0,1,1.94-.12A1.31,1.31,0,0,1,297.32,218.3Z"/><path class="o" d="M301.36,206.92a1.4,1.4,0,0,1,1.92-.29,1.31,1.31,0,0,1,.3,1.86,1.4,1.4,0,0,1-1.92.29A1.31,1.31,0,0,1,301.36,206.92Z"/><path class="o" d="M298.41,206.46a1.31,1.31,0,0,1-.54-1.81,1.4,1.4,0,0,1,1.87-.52,1.31,1.31,0,0,1,.54,1.81A1.4,1.4,0,0,1,298.41,206.46Z"/><path class="o" d="M278.15,223.19a1.4,1.4,0,0,1-1.94-.06,1.31,1.31,0,0,1,.06-1.88,1.4,1.4,0,0,1,1.94.06A1.31,1.31,0,0,1,278.15,223.19Z"/><path class="o" d="M284.95,221.83a1.4,1.4,0,0,1-1.94-.06,1.31,1.31,0,0,1,.06-1.88,1.4,1.4,0,0,1,1.94.06A1.31,1.31,0,0,1,284.95,221.83Z"/><path class="o" d="M276.12,229.86a1.4,1.4,0,0,1-1.94-.06,1.31,1.31,0,0,1,.06-1.88,1.4,1.4,0,0,1,1.94.06A1.31,1.31,0,0,1,276.12,229.86Z"/><ellipse class="o" cx="282.37" cy="216.28" rx="1.37" ry="1.33" transform="translate(-0.78 1.02) rotate(-0.21)"/><path class="o" d="M281.35,224.36a1.4,1.4,0,0,1-1.94.12,1.31,1.31,0,0,1-.13-1.88,1.4,1.4,0,0,1,1.94-.12A1.31,1.31,0,0,1,281.35,224.36Z"/><path class="o" d="M285.38,213a1.4,1.4,0,0,1,1.92-.29,1.31,1.31,0,0,1,.3,1.86,1.4,1.4,0,0,1-1.92.29A1.31,1.31,0,0,1,285.38,213Z"/><path class="o" d="M286.22,226.6a1.4,1.4,0,0,1-1.94-.06,1.31,1.31,0,0,1,.06-1.88,1.4,1.4,0,0,1,1.94.06A1.31,1.31,0,0,1,286.22,226.6Z"/><path class="o" d="M278.72,234a1.4,1.4,0,0,1-1.94-.06,1.31,1.31,0,0,1,.06-1.88,1.4,1.4,0,0,1,1.94.06A1.31,1.31,0,0,1,278.72,234Z"/><ellipse class="o" cx="281.97" cy="233.46" rx="1.37" ry="1.33" transform="translate(-0.84 1.02) rotate(-0.21)"/><path class="o" d="M285,230.17a1.4,1.4,0,0,1,1.92-.29,1.31,1.31,0,0,1,.3,1.86,1.4,1.4,0,0,1-1.92.29A1.31,1.31,0,0,1,285,230.17Z"/><path class="o" d="M282,229.71a1.31,1.31,0,0,1-.54-1.81,1.4,1.4,0,0,1,1.87-.52,1.31,1.31,0,0,1,.54,1.81A1.4,1.4,0,0,1,282,229.71Z"/><path class="o" d="M262.25,303.94a1.31,1.31,0,0,1-.21-1.87,1.4,1.4,0,0,1,1.93-.21,1.31,1.31,0,0,1,.21,1.87A1.4,1.4,0,0,1,262.25,303.94Z"/><path class="o" d="M253.63,297.78a1.31,1.31,0,0,1-.21-1.87,1.4,1.4,0,0,1,1.93-.21,1.31,1.31,0,0,1,.21,1.87A1.4,1.4,0,0,1,253.63,297.78Z"/><path class="o" d="M227.91,296.45a1.31,1.31,0,0,1-.21-1.87,1.4,1.4,0,0,1,1.93-.21,1.31,1.31,0,0,1,.21,1.87A1.4,1.4,0,0,1,227.91,296.45Z"/><path class="o" d="M249.34,304.09a1.31,1.31,0,0,1-.21-1.87,1.4,1.4,0,0,1,1.93-.21,1.31,1.31,0,0,1,.21,1.87A1.4,1.4,0,0,1,249.34,304.09Z"/><path class="o" d="M239.88,296.76a1.31,1.31,0,0,1-.21-1.87,1.4,1.4,0,0,1,1.93-.21,1.31,1.31,0,0,1,.21,1.87A1.4,1.4,0,0,1,239.88,296.76Z"/><path class="o" d="M253.28,301a1.34,1.34,0,0,1,1.16-1.51,1.37,1.37,0,0,1,1.56,1.13,1.34,1.34,0,0,1-1.16,1.51A1.37,1.37,0,0,1,253.28,301Z"/><path class="o" d="M246.24,301a1.31,1.31,0,0,1-.4-1.85,1.4,1.4,0,0,1,1.9-.39,1.31,1.31,0,0,1,.4,1.85A1.4,1.4,0,0,1,246.24,301Z"/><path class="o" d="M258.43,303.26a1.31,1.31,0,0,1,.57,1.8,1.4,1.4,0,0,1-1.86.55,1.31,1.31,0,0,1-.57-1.8A1.4,1.4,0,0,1,258.43,303.26Z"/><path class="o" d="M258.47,300.36a1.39,1.39,0,0,1,1.77-.77,1.32,1.32,0,0,1,.8,1.72,1.39,1.39,0,0,1-1.77.77A1.32,1.32,0,0,1,258.47,300.36Z"/><path class="o" d="M250,288.77a1.31,1.31,0,0,1,.57,1.8,1.4,1.4,0,0,1-1.86.55,1.31,1.31,0,0,1-.57-1.8A1.4,1.4,0,0,1,250,288.77Z"/><path class="o" d="M256,310.44a1.37,1.37,0,0,1-1.56-1.13,1.34,1.34,0,0,1,1.17-1.51,1.37,1.37,0,0,1,1.56,1.13A1.34,1.34,0,0,1,256,310.44Z"/><path class="o" d="M284.35,324.47a1.31,1.31,0,0,1-.21-1.87,1.4,1.4,0,0,1,1.93-.21,1.31,1.31,0,0,1,.21,1.87A1.4,1.4,0,0,1,284.35,324.47Z"/><path class="o" d="M277.69,324.44a1.31,1.31,0,0,1-.21-1.87,1.4,1.4,0,0,1,1.93-.21,1.31,1.31,0,0,1,.21,1.87A1.4,1.4,0,0,1,277.69,324.44Z"/><path class="o" d="M270.6,323.44a1.31,1.31,0,0,1-.21-1.87,1.4,1.4,0,0,1,1.93-.21,1.31,1.31,0,0,1,.21,1.87A1.4,1.4,0,0,1,270.6,323.44Z"/><path class="o" d="M277,327.68a1.31,1.31,0,0,1-.4-1.85,1.4,1.4,0,0,1,1.9-.39,1.31,1.31,0,0,1,.4,1.85A1.4,1.4,0,0,1,277,327.68Z"/><path class="o" d="M269.25,310a1.31,1.31,0,0,1-.21-1.87,1.4,1.4,0,0,1,1.93-.21,1.31,1.31,0,0,1,.21,1.87A1.4,1.4,0,0,1,269.25,310Z"/><path class="o" d="M271.6,316.3a1.31,1.31,0,0,1-.21-1.87,1.4,1.4,0,0,1,1.93-.21,1.31,1.31,0,0,1,.21,1.87A1.4,1.4,0,0,1,271.6,316.3Z"/><path class="o" d="M262.15,309a1.31,1.31,0,0,1-.21-1.87,1.4,1.4,0,0,1,1.93-.21,1.31,1.31,0,0,1,.21,1.87A1.4,1.4,0,0,1,262.15,309Z"/><path class="o" d="M275.54,313.23a1.34,1.34,0,0,1,1.16-1.51,1.37,1.37,0,0,1,1.56,1.13,1.34,1.34,0,0,1-1.16,1.51A1.37,1.37,0,0,1,275.54,313.23Z"/><path class="o" d="M268.51,313.2a1.31,1.31,0,0,1-.4-1.85A1.4,1.4,0,0,1,270,311a1.31,1.31,0,0,1,.4,1.85A1.4,1.4,0,0,1,268.51,313.2Z"/><path class="o" d="M280.69,315.46a1.31,1.31,0,0,1,.57,1.8,1.4,1.4,0,0,1-1.86.55,1.31,1.31,0,0,1-.57-1.8A1.4,1.4,0,0,1,280.69,315.46Z"/><path class="o" d="M266.92,318.19a1.31,1.31,0,0,1-.21-1.87,1.4,1.4,0,0,1,1.93-.21,1.31,1.31,0,0,1,.21,1.87A1.4,1.4,0,0,1,266.92,318.19Z"/><path class="o" d="M258.3,312a1.31,1.31,0,0,1-.21-1.87A1.4,1.4,0,0,1,260,310a1.31,1.31,0,0,1,.21,1.87A1.4,1.4,0,0,1,258.3,312Z"/><path class="o" d="M257.95,315.28a1.34,1.34,0,0,1,1.16-1.51,1.37,1.37,0,0,1,1.56,1.13,1.34,1.34,0,0,1-1.16,1.51A1.37,1.37,0,0,1,257.95,315.28Z"/><path class="o" d="M263.1,317.51a1.31,1.31,0,0,1,.57,1.8,1.4,1.4,0,0,1-1.86.55,1.31,1.31,0,0,1-.57-1.8A1.4,1.4,0,0,1,263.1,317.51Z"/><path class="o" d="M263.15,314.61a1.39,1.39,0,0,1,1.77-.77,1.32,1.32,0,0,1,.8,1.72,1.39,1.39,0,0,1-1.77.77A1.32,1.32,0,0,1,263.15,314.61Z"/><ellipse class="o" cx="185.85" cy="200.25" rx="1.37" ry="1.33"/><ellipse class="o" cx="186.28" cy="210.62" rx="1.37" ry="1.33"/><ellipse class="o" cx="190.42" cy="215.67" rx="1.37" ry="1.33"/><ellipse class="o" cx="194.05" cy="209.93" rx="1.37" ry="1.33"/><ellipse class="o" cx="194.05" cy="221.67" rx="1.37" ry="1.33"/><path class="o" d="M190.49,208.86a1.4,1.4,0,0,1-1.94.07,1.31,1.31,0,0,1-.07-1.88,1.4,1.4,0,0,1,1.94-.07A1.31,1.31,0,0,1,190.49,208.86Z"/><path class="o" d="M194.86,214.21a1.34,1.34,0,0,1-1.23,1.46,1.36,1.36,0,0,1-1.5-1.2,1.34,1.34,0,0,1,1.23-1.46A1.36,1.36,0,0,1,194.86,214.21Z"/><path class="o" d="M189.07,203.56a1.34,1.34,0,0,1,1.1-1.56,1.37,1.37,0,0,1,1.6,1.06,1.34,1.34,0,0,1-1.1,1.56A1.37,1.37,0,0,1,189.07,203.56Z"/><path class="o" d="M186.7,205.34a1.38,1.38,0,0,1-1.73-.86,1.33,1.33,0,0,1,.89-1.68,1.38,1.38,0,0,1,1.73.86A1.33,1.33,0,0,1,186.7,205.34Z"/><ellipse class="o" cx="189.4" cy="187.17" rx="1.37" ry="1.33"/><ellipse class="o" cx="189.82" cy="197.54" rx="1.37" ry="1.33"/><ellipse class="o" cx="193.96" cy="202.59" rx="1.37" ry="1.33"/><ellipse class="o" cx="197.59" cy="196.85" rx="1.37" ry="1.33"/><ellipse class="o" cx="197.59" cy="208.59" rx="1.37" ry="1.33"/><path class="o" d="M194,195.78a1.4,1.4,0,0,1-1.94.07A1.31,1.31,0,0,1,192,194a1.4,1.4,0,0,1,1.94-.07A1.31,1.31,0,0,1,194,195.78Z"/><path class="o" d="M198.4,201.13a1.34,1.34,0,0,1-1.23,1.46,1.36,1.36,0,0,1-1.5-1.2,1.34,1.34,0,0,1,1.23-1.46A1.36,1.36,0,0,1,198.4,201.13Z"/><path class="o" d="M192.61,190.49a1.34,1.34,0,0,1,1.1-1.56,1.37,1.37,0,0,1,1.6,1.06,1.34,1.34,0,0,1-1.1,1.56A1.37,1.37,0,0,1,192.61,190.49Z"/><path class="o" d="M190.25,192.26a1.38,1.38,0,0,1-1.73-.86,1.33,1.33,0,0,1,.89-1.68,1.38,1.38,0,0,1,1.73.86A1.33,1.33,0,0,1,190.25,192.26Z"/><path class="p" d="M226.66,271.13a1.38,1.38,0,0,1,1.82-.62,1.3,1.3,0,0,1,.64,1.76,1.38,1.38,0,0,1-1.82.62A1.3,1.3,0,0,1,226.66,271.13Z"/><path class="p" d="M235.51,258.44a1.38,1.38,0,0,1,1.82-.62,1.3,1.3,0,0,1,.64,1.76,1.38,1.38,0,0,1-1.82.62A1.3,1.3,0,0,1,235.51,258.44Z"/><path class="p" d="M185.27,262.48a1.38,1.38,0,0,1,1.82-.62,1.3,1.3,0,0,1,.64,1.76,1.38,1.38,0,0,1-1.82.62A1.3,1.3,0,0,1,185.27,262.48Z"/><path class="p" d="M179.81,225.68a1.38,1.38,0,0,1,1.82-.62,1.3,1.3,0,0,1,.64,1.76,1.38,1.38,0,0,1-1.82.62A1.3,1.3,0,0,1,179.81,225.68Z"/><path class="p" d="M174.42,219.4a1.38,1.38,0,0,1,1.82-.62,1.3,1.3,0,0,1,.64,1.76,1.38,1.38,0,0,1-1.82.62A1.3,1.3,0,0,1,174.42,219.4Z"/><path class="p" d="M174.54,260.35a1.38,1.38,0,0,1,1.82-.62,1.3,1.3,0,0,1,.64,1.76,1.38,1.38,0,0,1-1.82.62A1.3,1.3,0,0,1,174.54,260.35Z"/><path class="p" d="M204.61,260.39a1.38,1.38,0,0,1,1.82-.62,1.3,1.3,0,0,1,.64,1.76,1.38,1.38,0,0,1-1.82.62A1.3,1.3,0,0,1,204.61,260.39Z"/><path class="p" d="M238.24,285.77a1.38,1.38,0,0,1,1.82-.62,1.3,1.3,0,0,1,.64,1.76,1.38,1.38,0,0,1-1.82.62A1.3,1.3,0,0,1,238.24,285.77Z"/><path class="p" d="M178.92,217.77a1.38,1.38,0,0,1,1.82-.62,1.3,1.3,0,0,1,.64,1.76,1.38,1.38,0,0,1-1.82.62A1.3,1.3,0,0,1,178.92,217.77Z"/><path class="p" d="M188.86,221.27a1.38,1.38,0,0,1,1.82-.62,1.3,1.3,0,0,1,.64,1.76,1.38,1.38,0,0,1-1.82.62A1.3,1.3,0,0,1,188.86,221.27Z"/><path class="p" d="M219,259.76a1.38,1.38,0,0,1,1.82-.62,1.3,1.3,0,0,1,.64,1.76,1.38,1.38,0,0,1-1.82.62A1.3,1.3,0,0,1,219,259.76Z"/><path class="p" d="M217.17,267.91a1.38,1.38,0,0,1,1.82-.62,1.3,1.3,0,0,1,.64,1.76,1.38,1.38,0,0,1-1.82.62A1.3,1.3,0,0,1,217.17,267.91Z"/><path class="p" d="M234.76,269.23a1.38,1.38,0,0,1,1.82-.62,1.3,1.3,0,0,1,.64,1.76,1.38,1.38,0,0,1-1.82.62A1.3,1.3,0,0,1,234.76,269.23Z"/><path class="p" d="M223.93,276.94a1.38,1.38,0,0,1,1.82-.62,1.3,1.3,0,0,1,.64,1.76,1.38,1.38,0,0,1-1.82.62A1.3,1.3,0,0,1,223.93,276.94Z"/><path class="p" d="M225.58,262.32a1.38,1.38,0,0,1,1.82-.62,1.3,1.3,0,0,1,.64,1.76,1.38,1.38,0,0,1-1.82.62A1.3,1.3,0,0,1,225.58,262.32Z"/><path class="p" d="M217,278a1.38,1.38,0,0,1,1.82-.62,1.3,1.3,0,0,1,.64,1.76,1.38,1.38,0,0,1-1.82.62A1.3,1.3,0,0,1,217,278Z"/><path class="p" d="M230.65,261.08a1.38,1.38,0,0,1,1.82-.62,1.3,1.3,0,0,1,.64,1.76,1.38,1.38,0,0,1-1.82.62A1.3,1.3,0,0,1,230.65,261.08Z"/><path class="p" d="M185,253.28a1.38,1.38,0,0,1,1.82-.62,1.3,1.3,0,0,1,.64,1.76,1.38,1.38,0,0,1-1.82.62A1.3,1.3,0,0,1,185,253.28Z"/><path class="p" d="M190.39,254.73a1.38,1.38,0,0,1,1.82-.62,1.3,1.3,0,0,1,.64,1.76,1.38,1.38,0,0,1-1.82.62A1.3,1.3,0,0,1,190.39,254.73Z"/><path class="p" d="M167.92,206.63a1.38,1.38,0,0,1,1.82-.62,1.3,1.3,0,0,1,.64,1.76,1.38,1.38,0,0,1-1.82.62A1.3,1.3,0,0,1,167.92,206.63Z"/><path class="p" d="M212.54,261a1.38,1.38,0,0,1,1.82-.62,1.3,1.3,0,0,1,.64,1.76,1.38,1.38,0,0,1-1.82.62A1.3,1.3,0,0,1,212.54,261Z"/><path class="p" d="M175.6,208.29a1.38,1.38,0,0,1,1.82-.62,1.3,1.3,0,0,1,.64,1.76,1.38,1.38,0,0,1-1.82.62A1.3,1.3,0,0,1,175.6,208.29Z"/><path class="p" d="M207.34,267.24a1.38,1.38,0,0,1,1.82-.62,1.3,1.3,0,0,1,.64,1.76A1.38,1.38,0,0,1,208,269,1.3,1.3,0,0,1,207.34,267.24Z"/><path class="p" d="M190.14,276.13a1.38,1.38,0,0,1,1.82-.62,1.3,1.3,0,0,1,.64,1.76,1.38,1.38,0,0,1-1.82.62A1.3,1.3,0,0,1,190.14,276.13Z"/><path class="p" d="M209.48,274a1.38,1.38,0,0,1,1.82-.62,1.3,1.3,0,0,1,.64,1.76,1.38,1.38,0,0,1-1.82.62A1.3,1.3,0,0,1,209.48,274Z"/><path class="p" d="M202.16,275.35a1.38,1.38,0,0,1,1.82-.62,1.3,1.3,0,0,1,.64,1.76,1.38,1.38,0,0,1-1.82.62A1.3,1.3,0,0,1,202.16,275.35Z"/><path class="p" d="M207.61,281.56a1.38,1.38,0,0,1,1.82-.62,1.3,1.3,0,0,1,.64,1.76,1.38,1.38,0,0,1-1.82.62A1.3,1.3,0,0,1,207.61,281.56Z"/><path class="p" d="M230.65,285.06a1.38,1.38,0,0,1,1.82-.62,1.3,1.3,0,0,1,.64,1.76,1.38,1.38,0,0,1-1.82.62A1.3,1.3,0,0,1,230.65,285.06Z"/><path class="p" d="M223.34,286.38a1.38,1.38,0,0,1,1.82-.62,1.3,1.3,0,0,1,.64,1.76,1.38,1.38,0,0,1-1.82.62A1.3,1.3,0,0,1,223.34,286.38Z"/><path class="p" d="M222,281.56a1.38,1.38,0,0,1,1.82-.62,1.3,1.3,0,0,1,.64,1.76,1.38,1.38,0,0,1-1.82.62A1.3,1.3,0,0,1,222,281.56Z"/><path class="p" d="M229.09,288.42a1.38,1.38,0,0,1,1.82-.62,1.3,1.3,0,0,1,.64,1.76,1.38,1.38,0,0,1-1.82.62A1.3,1.3,0,0,1,229.09,288.42Z"/><path class="p" d="M230.45,276a1.38,1.38,0,0,1,1.82-.62,1.3,1.3,0,0,1,.64,1.76,1.38,1.38,0,0,1-1.82.62A1.3,1.3,0,0,1,230.45,276Z"/><path class="p" d="M221.87,291.67a1.38,1.38,0,0,1,1.82-.62,1.3,1.3,0,0,1,.64,1.76,1.38,1.38,0,0,1-1.82.62A1.3,1.3,0,0,1,221.87,291.67Z"/><path class="p" d="M195.26,268.38a1.38,1.38,0,0,1,1.82-.62,1.3,1.3,0,0,1,.64,1.76,1.38,1.38,0,0,1-1.82.62A1.3,1.3,0,0,1,195.26,268.38Z"/><path class="p" d="M217.41,274.61a1.38,1.38,0,0,1,1.82-.62,1.3,1.3,0,0,1,.64,1.76,1.38,1.38,0,0,1-1.82.62A1.3,1.3,0,0,1,217.41,274.61Z"/><path class="p" d="M236.87,278.44a1.38,1.38,0,0,1,1.82-.62,1.3,1.3,0,0,1,.64,1.76,1.38,1.38,0,0,1-1.82.62A1.3,1.3,0,0,1,236.87,278.44Z"/><path class="p" d="M161.26,202.76a1.38,1.38,0,0,1,1.82-.62,1.3,1.3,0,0,1,.64,1.76,1.38,1.38,0,0,1-1.82.62A1.3,1.3,0,0,1,161.26,202.76Z"/><path class="p" d="M220.24,263.83a1.38,1.38,0,0,1,1.82-.62,1.3,1.3,0,0,1,.64,1.76,1.38,1.38,0,0,1-1.82.62A1.3,1.3,0,0,1,220.24,263.83Z"/><path class="p" d="M201.11,285.05a1.38,1.38,0,0,1,1.82-.62,1.3,1.3,0,0,1,.64,1.76,1.38,1.38,0,0,1-1.82.62A1.3,1.3,0,0,1,201.11,285.05Z"/><path class="p" d="M227.43,307.69a1.38,1.38,0,0,1,1.82-.62,1.3,1.3,0,0,1,.64,1.76,1.38,1.38,0,0,1-1.82.62A1.3,1.3,0,0,1,227.43,307.69Z"/><path class="p" d="M212.69,286.38a1.38,1.38,0,0,1,1.82-.62,1.3,1.3,0,0,1,.64,1.76,1.38,1.38,0,0,1-1.82.62A1.3,1.3,0,0,1,212.69,286.38Z"/><path class="p" d="M205.37,296.94a1.38,1.38,0,0,1,1.82-.62,1.3,1.3,0,0,1,.64,1.76,1.38,1.38,0,0,1-1.82.62A1.3,1.3,0,0,1,205.37,296.94Z"/><path class="p" d="M201.88,263.83a1.38,1.38,0,0,1,1.82-.62,1.3,1.3,0,0,1,.64,1.76,1.38,1.38,0,0,1-1.82.62A1.3,1.3,0,0,1,201.88,263.83Z"/><path class="p" d="M219.81,296.32a1.38,1.38,0,0,1,1.82-.62,1.3,1.3,0,0,1,.64,1.76,1.38,1.38,0,0,1-1.82.62A1.3,1.3,0,0,1,219.81,296.32Z"/><path class="p" d="M217.94,304.47a1.38,1.38,0,0,1,1.82-.62,1.3,1.3,0,0,1,.64,1.76,1.38,1.38,0,0,1-1.82.62A1.3,1.3,0,0,1,217.94,304.47Z"/><path class="p" d="M233.4,296.57a1.38,1.38,0,0,1,1.82-.62,1.3,1.3,0,0,1,.64,1.76,1.38,1.38,0,0,1-1.82.62A1.3,1.3,0,0,1,233.4,296.57Z"/><path class="p" d="M224.7,313.5a1.38,1.38,0,0,1,1.82-.62,1.3,1.3,0,0,1,.64,1.76,1.38,1.38,0,0,1-1.82.62A1.3,1.3,0,0,1,224.7,313.5Z"/><path class="p" d="M226.35,298.88a1.38,1.38,0,0,1,1.82-.62,1.3,1.3,0,0,1,.64,1.76,1.38,1.38,0,0,1-1.82.62A1.3,1.3,0,0,1,226.35,298.88Z"/><path class="p" d="M217.77,314.58a1.38,1.38,0,0,1,1.82-.62,1.3,1.3,0,0,1,.64,1.76,1.38,1.38,0,0,1-1.82.62A1.3,1.3,0,0,1,217.77,314.58Z"/><path class="p" d="M234.76,291.06a1.38,1.38,0,0,1,1.82-.62,1.3,1.3,0,0,1,.64,1.76,1.38,1.38,0,0,1-1.82.62A1.3,1.3,0,0,1,234.76,291.06Z"/><path class="p" d="M213.31,297.51a1.38,1.38,0,0,1,1.82-.62,1.3,1.3,0,0,1,.64,1.76,1.38,1.38,0,0,1-1.82.62A1.3,1.3,0,0,1,213.31,297.51Z"/><path class="p" d="M208.11,303.8a1.38,1.38,0,0,1,1.82-.62,1.3,1.3,0,0,1,.64,1.76,1.38,1.38,0,0,1-1.82.62A1.3,1.3,0,0,1,208.11,303.8Z"/><path class="p" d="M190.91,312.69a1.38,1.38,0,0,1,1.82-.62,1.3,1.3,0,0,1,.64,1.76,1.38,1.38,0,0,1-1.82.62A1.3,1.3,0,0,1,190.91,312.69Z"/><path class="p" d="M210.24,310.6a1.38,1.38,0,0,1,1.82-.62,1.3,1.3,0,0,1,.64,1.76,1.38,1.38,0,0,1-1.82.62A1.3,1.3,0,0,1,210.24,310.6Z"/><path class="p" d="M202.93,311.91a1.38,1.38,0,0,1,1.82-.62,1.3,1.3,0,0,1,.64,1.76,1.38,1.38,0,0,1-1.82.62A1.3,1.3,0,0,1,202.93,311.91Z"/><path class="p" d="M212.08,323.71a1.38,1.38,0,0,1,1.82-.62,1.3,1.3,0,0,1,.64,1.76,1.38,1.38,0,0,1-1.82.62A1.3,1.3,0,0,1,212.08,323.71Z"/><path class="p" d="M231.42,321.62a1.38,1.38,0,0,1,1.82-.62,1.3,1.3,0,0,1,.64,1.76,1.38,1.38,0,0,1-1.82.62A1.3,1.3,0,0,1,231.42,321.62Z"/><path class="p" d="M224.1,322.93a1.38,1.38,0,0,1,1.82-.62,1.3,1.3,0,0,1,.64,1.76,1.38,1.38,0,0,1-1.82.62A1.3,1.3,0,0,1,224.1,322.93Z"/><path class="p" d="M222.81,318.12a1.38,1.38,0,0,1,1.82-.62,1.3,1.3,0,0,1,.64,1.76,1.38,1.38,0,0,1-1.82.62A1.3,1.3,0,0,1,222.81,318.12Z"/><path class="p" d="M229.57,327.15a1.38,1.38,0,0,1,1.82-.62,1.3,1.3,0,0,1,.64,1.76,1.38,1.38,0,0,1-1.82.62A1.3,1.3,0,0,1,229.57,327.15Z"/><path class="p" d="M231.22,312.53a1.38,1.38,0,0,1,1.82-.62,1.3,1.3,0,0,1,.64,1.76,1.38,1.38,0,0,1-1.82.62A1.3,1.3,0,0,1,231.22,312.53Z"/><path class="p" d="M222.64,328.23a1.38,1.38,0,0,1,1.82-.62,1.3,1.3,0,0,1,.64,1.76,1.38,1.38,0,0,1-1.82.62A1.3,1.3,0,0,1,222.64,328.23Z"/><path class="p" d="M196,304.94a1.38,1.38,0,0,1,1.82-.62,1.3,1.3,0,0,1,.64,1.76,1.38,1.38,0,0,1-1.82.62A1.3,1.3,0,0,1,196,304.94Z"/><path class="p" d="M218.18,311.17a1.38,1.38,0,0,1,1.82-.62,1.3,1.3,0,0,1,.64,1.76,1.38,1.38,0,0,1-1.82.62A1.3,1.3,0,0,1,218.18,311.17Z"/><path class="p" d="M213,317.45a1.38,1.38,0,0,1,1.82-.62,1.3,1.3,0,0,1,.64,1.76,1.38,1.38,0,0,1-1.82.62A1.3,1.3,0,0,1,213,317.45Z"/><path class="p" d="M105,189.55a1.38,1.38,0,0,1,1.82-.62,1.3,1.3,0,0,1,.64,1.76,1.38,1.38,0,0,1-1.82.62A1.3,1.3,0,0,1,105,189.55Z"/><path class="p" d="M111.67,197.67a1.38,1.38,0,0,1,1.82-.62,1.3,1.3,0,0,1,.64,1.76,1.38,1.38,0,0,1-1.82.62A1.3,1.3,0,0,1,111.67,197.67Z"/><path class="p" d="M104.35,199a1.38,1.38,0,0,1,1.82-.62,1.3,1.3,0,0,1,.64,1.76,1.38,1.38,0,0,1-1.82.62A1.3,1.3,0,0,1,104.35,199Z"/><path class="p" d="M103.06,194.17a1.38,1.38,0,0,1,1.82-.62,1.3,1.3,0,0,1,.64,1.76,1.38,1.38,0,0,1-1.82.62A1.3,1.3,0,0,1,103.06,194.17Z"/><path class="p" d="M109.82,203.2a1.38,1.38,0,0,1,1.82-.62,1.3,1.3,0,0,1,.64,1.76,1.38,1.38,0,0,1-1.82.62A1.3,1.3,0,0,1,109.82,203.2Z"/><path class="p" d="M102.89,204.28a1.38,1.38,0,0,1,1.82-.62,1.3,1.3,0,0,1,.64,1.76,1.38,1.38,0,0,1-1.82.62A1.3,1.3,0,0,1,102.89,204.28Z"/><path class="p" d="M108.45,220.3a1.38,1.38,0,0,1,1.82-.62,1.3,1.3,0,0,1,.64,1.76,1.38,1.38,0,0,1-1.82.62A1.3,1.3,0,0,1,108.45,220.3Z"/><path class="p" d="M99.8,202.35a1.38,1.38,0,0,1,1.82-.62,1.3,1.3,0,0,1,.64,1.76,1.38,1.38,0,0,1-1.82.62A1.3,1.3,0,0,1,99.8,202.35Z"/><path class="p" d="M100.83,208.93a1.38,1.38,0,0,1,1.82-.62,1.3,1.3,0,0,1,.64,1.76,1.38,1.38,0,0,1-1.82.62A1.3,1.3,0,0,1,100.83,208.93Z"/><path class="p" d="M99,217.08a1.38,1.38,0,0,1,1.82-.62,1.3,1.3,0,0,1,.64,1.76,1.38,1.38,0,0,1-1.82.62A1.3,1.3,0,0,1,99,217.08Z"/><path class="p" d="M105.72,226.11a1.38,1.38,0,0,1,1.82-.62,1.3,1.3,0,0,1,.64,1.76,1.38,1.38,0,0,1-1.82.62A1.3,1.3,0,0,1,105.72,226.11Z"/><path class="p" d="M107.37,211.49a1.38,1.38,0,0,1,1.82-.62,1.3,1.3,0,0,1,.64,1.76,1.38,1.38,0,0,1-1.82.62A1.3,1.3,0,0,1,107.37,211.49Z"/><path class="p" d="M98.79,227.19a1.38,1.38,0,0,1,1.82-.62,1.3,1.3,0,0,1,.64,1.76,1.38,1.38,0,0,1-1.82.62A1.3,1.3,0,0,1,98.79,227.19Z"/><path class="p" d="M106.29,204.54a1.38,1.38,0,0,1,1.82-.62,1.3,1.3,0,0,1,.64,1.76,1.38,1.38,0,0,1-1.82.62A1.3,1.3,0,0,1,106.29,204.54Z"/><path class="p" d="M93.1,236.32a1.38,1.38,0,0,1,1.82-.62,1.3,1.3,0,0,1,.64,1.76,1.38,1.38,0,0,1-1.82.62A1.3,1.3,0,0,1,93.1,236.32Z"/><path class="p" d="M105.12,235.54a1.38,1.38,0,0,1,1.82-.62,1.3,1.3,0,0,1,.64,1.76,1.38,1.38,0,0,1-1.82.62A1.3,1.3,0,0,1,105.12,235.54Z"/><path class="p" d="M103.83,230.73a1.38,1.38,0,0,1,1.82-.62,1.3,1.3,0,0,1,.64,1.76,1.38,1.38,0,0,1-1.82.62A1.3,1.3,0,0,1,103.83,230.73Z"/><path class="p" d="M103.66,240.84a1.38,1.38,0,0,1,1.82-.62,1.3,1.3,0,0,1,.64,1.76,1.38,1.38,0,0,1-1.82.62A1.3,1.3,0,0,1,103.66,240.84Z"/><path class="p" d="M99.2,223.78a1.38,1.38,0,0,1,1.82-.62,1.3,1.3,0,0,1,.64,1.76,1.38,1.38,0,0,1-1.82.62A1.3,1.3,0,0,1,99.2,223.78Z"/><path class="p" d="M94,230.06a1.38,1.38,0,0,1,1.82-.62,1.3,1.3,0,0,1,.64,1.76,1.38,1.38,0,0,1-1.82.62A1.3,1.3,0,0,1,94,230.06Z"/><path class="p" d="M211.33,291.81a1.38,1.38,0,0,1,1.82-.62,1.3,1.3,0,0,1,.64,1.76,1.38,1.38,0,0,1-1.82.62A1.3,1.3,0,0,1,211.33,291.81Z"/><path class="p" d="M203.24,292a1.38,1.38,0,0,1,1.82-.62,1.3,1.3,0,0,1,.64,1.76,1.38,1.38,0,0,1-1.82.62A1.3,1.3,0,0,1,203.24,292Z"/><path class="p" d="M169.59,212.92a1.38,1.38,0,0,1,1.82-.62,1.3,1.3,0,0,1,.64,1.76,1.38,1.38,0,0,1-1.82.62A1.3,1.3,0,0,1,169.59,212.92Z"/><path class="q" d="M222.22,258.27a1.39,1.39,0,0,1,1.9.32,1.3,1.3,0,0,1-.33,1.84,1.39,1.39,0,0,1-1.9-.32A1.3,1.3,0,0,1,222.22,258.27Z"/><path class="q" d="M247.2,236.82a1.39,1.39,0,0,1,1.9.32,1.3,1.3,0,0,1-.33,1.84,1.39,1.39,0,0,1-1.9-.32A1.3,1.3,0,0,1,247.2,236.82Z"/><path class="q" d="M213.94,229.45a1.39,1.39,0,0,1,1.9.32,1.3,1.3,0,0,1-.33,1.84,1.39,1.39,0,0,1-1.9-.32A1.3,1.3,0,0,1,213.94,229.45Z"/><path class="q" d="M227.66,194.74a1.39,1.39,0,0,1,1.9.32,1.3,1.3,0,0,1-.33,1.84,1.39,1.39,0,0,1-1.9-.32A1.3,1.3,0,0,1,227.66,194.74Z"/><path class="q" d="M226.11,186.71a1.39,1.39,0,0,1,1.9.32,1.3,1.3,0,0,1-.33,1.84,1.39,1.39,0,0,1-1.9-.32A1.3,1.3,0,0,1,226.11,186.71Z"/><path class="q" d="M205.64,222.52a1.39,1.39,0,0,1,1.9.32,1.3,1.3,0,0,1-.33,1.84,1.39,1.39,0,0,1-1.9-.32A1.3,1.3,0,0,1,205.64,222.52Z"/><path class="q" d="M231.87,236.77a1.39,1.39,0,0,1,1.9.32,1.3,1.3,0,0,1-.33,1.84,1.39,1.39,0,0,1-1.9-.32A1.3,1.3,0,0,1,231.87,236.77Z"/><path class="q" d="M224.82,234.46a1.39,1.39,0,0,1,1.9.32,1.3,1.3,0,0,1-.33,1.84,1.39,1.39,0,0,1-1.9-.32A1.3,1.3,0,0,1,224.82,234.46Z"/><path class="q" d="M230.86,187.41a1.39,1.39,0,0,1,1.9.32,1.3,1.3,0,0,1-.33,1.84,1.39,1.39,0,0,1-1.9-.32A1.3,1.3,0,0,1,230.86,187.41Z"/><path class="q" d="M237.78,195.16a1.39,1.39,0,0,1,1.9.32,1.3,1.3,0,0,1-.33,1.84,1.39,1.39,0,0,1-1.9-.32A1.3,1.3,0,0,1,237.78,195.16Z"/><path class="q" d="M244.79,243a1.39,1.39,0,0,1,1.9.32,1.3,1.3,0,0,1-.33,1.84,1.39,1.39,0,0,1-1.9-.32A1.3,1.3,0,0,1,244.79,243Z"/><path class="q" d="M239.06,249.28a1.39,1.39,0,0,1,1.9.32,1.3,1.3,0,0,1-.33,1.84,1.39,1.39,0,0,1-1.9-.32A1.3,1.3,0,0,1,239.06,249.28Z"/><path class="q" d="M256.53,249.69a1.39,1.39,0,0,1,1.9.32,1.3,1.3,0,0,1-.33,1.84,1.39,1.39,0,0,1-1.9-.32A1.3,1.3,0,0,1,256.53,249.69Z"/><path class="q" d="M240.43,260.36a1.39,1.39,0,0,1,1.9.32,1.3,1.3,0,0,1-.33,1.84,1.39,1.39,0,0,1-1.9-.32A1.3,1.3,0,0,1,240.43,260.36Z"/><path class="q" d="M249.21,248.37a1.39,1.39,0,0,1,1.9.32,1.3,1.3,0,0,1-.33,1.84,1.39,1.39,0,0,1-1.9-.32A1.3,1.3,0,0,1,249.21,248.37Z"/><path class="q" d="M208.49,258a1.39,1.39,0,0,1,1.9.32,1.3,1.3,0,0,1-.33,1.84,1.39,1.39,0,0,1-1.9-.32A1.3,1.3,0,0,1,208.49,258Z"/><path class="q" d="M251.77,241.79a1.39,1.39,0,0,1,1.9.32,1.3,1.3,0,0,1-.33,1.84,1.39,1.39,0,0,1-1.9-.32A1.3,1.3,0,0,1,251.77,241.79Z"/><path class="q" d="M218.33,221.29a1.39,1.39,0,0,1,1.9.32,1.3,1.3,0,0,1-.33,1.84,1.39,1.39,0,0,1-1.9-.32A1.3,1.3,0,0,1,218.33,221.29Z"/><path class="q" d="M222.31,225.11a1.39,1.39,0,0,1,1.9.32,1.3,1.3,0,0,1-.33,1.84,1.39,1.39,0,0,1-1.9-.32A1.3,1.3,0,0,1,222.31,225.11Z"/><path class="q" d="M226.84,172.48a1.39,1.39,0,0,1,1.9.32,1.3,1.3,0,0,1-.33,1.84,1.39,1.39,0,0,1-1.9-.32A1.3,1.3,0,0,1,226.84,172.48Z"/><path class="q" d="M238.51,241a1.39,1.39,0,0,1,1.9.32,1.3,1.3,0,0,1-.33,1.84,1.39,1.39,0,0,1-1.9-.32A1.3,1.3,0,0,1,238.51,241Z"/><path class="q" d="M232.72,177.56a1.39,1.39,0,0,1,1.9.32,1.3,1.3,0,0,1-.33,1.84,1.39,1.39,0,0,1-1.9-.32A1.3,1.3,0,0,1,232.72,177.56Z"/><path class="q" d="M230.82,244a1.39,1.39,0,0,1,1.9.32,1.3,1.3,0,0,1-.33,1.84,1.39,1.39,0,0,1-1.9-.32A1.3,1.3,0,0,1,230.82,244Z"/><path class="q" d="M211.33,243.67a1.39,1.39,0,0,1,1.9.32,1.3,1.3,0,0,1-.33,1.84,1.39,1.39,0,0,1-1.9-.32A1.3,1.3,0,0,1,211.33,243.67Z"/><path class="q" d="M229.27,251a1.39,1.39,0,0,1,1.9.32,1.3,1.3,0,0,1-.33,1.84,1.39,1.39,0,0,1-1.9-.32A1.3,1.3,0,0,1,229.27,251Z"/><path class="q" d="M222.22,248.68a1.39,1.39,0,0,1,1.9.32,1.3,1.3,0,0,1-.33,1.84,1.39,1.39,0,0,1-1.9-.32A1.3,1.3,0,0,1,222.22,248.68Z"/><path class="q" d="M224.28,263.31a1.39,1.39,0,0,1,1.9.32,1.3,1.3,0,0,1-.33,1.84,1.39,1.39,0,0,1-1.9-.32A1.3,1.3,0,0,1,224.28,263.31Z"/><path class="q" d="M238.83,275.64a1.39,1.39,0,0,1,1.9.32,1.3,1.3,0,0,1-.33,1.84,1.39,1.39,0,0,1-1.9-.32A1.3,1.3,0,0,1,238.83,275.64Z"/><path class="q" d="M232.71,265a1.39,1.39,0,0,1,1.9.32,1.3,1.3,0,0,1-.33,1.84,1.39,1.39,0,0,1-1.9-.32A1.3,1.3,0,0,1,232.71,265Z"/><path class="q" d="M236.46,263.5a1.39,1.39,0,0,1,1.9.32,1.3,1.3,0,0,1-.33,1.84,1.39,1.39,0,0,1-1.9-.32A1.3,1.3,0,0,1,236.46,263.5Z"/><path class="q" d="M233.67,286.64a1.39,1.39,0,0,1,1.9.32,1.3,1.3,0,0,1-.33,1.84,1.39,1.39,0,0,1-1.9-.32A1.3,1.3,0,0,1,233.67,286.64Z"/><path class="q" d="M238.83,289.28a1.39,1.39,0,0,1,1.9.32,1.3,1.3,0,0,1-.33,1.84,1.39,1.39,0,0,1-1.9-.32A1.3,1.3,0,0,1,238.83,289.28Z"/><path class="q" d="M231.23,272.25a1.39,1.39,0,0,1,1.9.32,1.3,1.3,0,0,1-.33,1.84,1.39,1.39,0,0,1-1.9-.32A1.3,1.3,0,0,1,231.23,272.25Z"/><path class="q" d="M219.7,239.33a1.39,1.39,0,0,1,1.9.32,1.3,1.3,0,0,1-.33,1.84,1.39,1.39,0,0,1-1.9-.32A1.3,1.3,0,0,1,219.7,239.33Z"/><path class="q" d="M235.91,255.24a1.39,1.39,0,0,1,1.9.32,1.3,1.3,0,0,1-.33,1.84,1.39,1.39,0,0,1-1.9-.32A1.3,1.3,0,0,1,235.91,255.24Z"/><path class="q" d="M228.21,258.27a1.39,1.39,0,0,1,1.9.32,1.3,1.3,0,0,1-.33,1.84,1.39,1.39,0,0,1-1.9-.32A1.3,1.3,0,0,1,228.21,258.27Z"/><path class="q" d="M223,166a1.39,1.39,0,0,1,1.9.32,1.3,1.3,0,0,1-.33,1.84,1.39,1.39,0,0,1-1.9-.32A1.3,1.3,0,0,1,223,166Z"/><path class="q" d="M239.65,235.1a1.39,1.39,0,0,1,1.9.32,1.3,1.3,0,0,1-.33,1.84,1.39,1.39,0,0,1-1.9-.32A1.3,1.3,0,0,1,239.65,235.1Z"/><path class="q" d="M232.51,231.41a1.39,1.39,0,0,1,1.9.32,1.3,1.3,0,0,1-.33,1.84,1.39,1.39,0,0,1-1.9-.32A1.3,1.3,0,0,1,232.51,231.41Z"/><path class="q" d="M228,288.86a1.39,1.39,0,0,1,1.9.32,1.3,1.3,0,0,1-.33,1.84,1.39,1.39,0,0,1-1.9-.32A1.3,1.3,0,0,1,228,288.86Z"/><path class="q" d="M229.51,269.1a1.39,1.39,0,0,1,1.9.32,1.3,1.3,0,0,1-.33,1.84,1.39,1.39,0,0,1-1.9-.32A1.3,1.3,0,0,1,229.51,269.1Z"/><path class="q" d="M214.18,269.05a1.39,1.39,0,0,1,1.9.32,1.3,1.3,0,0,1-.33,1.84,1.39,1.39,0,0,1-1.9-.32A1.3,1.3,0,0,1,214.18,269.05Z"/><path class="q" d="M207.13,266.74a1.39,1.39,0,0,1,1.9.32,1.3,1.3,0,0,1-.33,1.84,1.39,1.39,0,0,1-1.9-.32A1.3,1.3,0,0,1,207.13,266.74Z"/><path class="q" d="M227.09,275.33a1.39,1.39,0,0,1,1.9.32,1.3,1.3,0,0,1-.33,1.84,1.39,1.39,0,0,1-1.9-.32A1.3,1.3,0,0,1,227.09,275.33Z"/><path class="q" d="M225.09,282a1.39,1.39,0,0,1,1.9.32,1.3,1.3,0,0,1-.33,1.84,1.39,1.39,0,0,1-1.9-.32A1.3,1.3,0,0,1,225.09,282Z"/><path class="q" d="M238.83,282a1.39,1.39,0,0,1,1.9.32,1.3,1.3,0,0,1-.33,1.84,1.39,1.39,0,0,1-1.9-.32A1.3,1.3,0,0,1,238.83,282Z"/><path class="q" d="M226.46,292.2a1.39,1.39,0,0,1,1.9.32,1.3,1.3,0,0,1-.33,1.84,1.39,1.39,0,0,1-1.9-.32A1.3,1.3,0,0,1,226.46,292.2Z"/><path class="q" d="M231.52,280.66a1.39,1.39,0,0,1,1.9.32,1.3,1.3,0,0,1-.33,1.84,1.39,1.39,0,0,1-1.9-.32A1.3,1.3,0,0,1,231.52,280.66Z"/><path class="q" d="M216.15,290.31a1.39,1.39,0,0,1,1.9.32,1.3,1.3,0,0,1-.33,1.84,1.39,1.39,0,0,1-1.9-.32A1.3,1.3,0,0,1,216.15,290.31Z"/><path class="q" d="M237.83,269.05a1.39,1.39,0,0,1,1.9.32,1.3,1.3,0,0,1-.33,1.84,1.39,1.39,0,0,1-1.9-.32A1.3,1.3,0,0,1,237.83,269.05Z"/><path class="q" d="M220.82,273.3a1.39,1.39,0,0,1,1.9.32,1.3,1.3,0,0,1-.33,1.84,1.39,1.39,0,0,1-1.9-.32A1.3,1.3,0,0,1,220.82,273.3Z"/><path class="q" d="M213.12,276.33a1.39,1.39,0,0,1,1.9.32,1.3,1.3,0,0,1-.33,1.84,1.39,1.39,0,0,1-1.9-.32A1.3,1.3,0,0,1,213.12,276.33Z"/><path class="q" d="M193.63,276a1.39,1.39,0,0,1,1.9.32,1.3,1.3,0,0,1-.33,1.84,1.39,1.39,0,0,1-1.9-.32A1.3,1.3,0,0,1,193.63,276Z"/><path class="q" d="M211.57,283.28a1.39,1.39,0,0,1,1.9.32,1.3,1.3,0,0,1-.33,1.84,1.39,1.39,0,0,1-1.9-.32A1.3,1.3,0,0,1,211.57,283.28Z"/><path class="q" d="M204.52,281a1.39,1.39,0,0,1,1.9.32,1.3,1.3,0,0,1-.33,1.84,1.39,1.39,0,0,1-1.9-.32A1.3,1.3,0,0,1,204.52,281Z"/><path class="q" d="M211.33,293.53a1.39,1.39,0,0,1,1.9.32,1.3,1.3,0,0,1-.33,1.84,1.39,1.39,0,0,1-1.9-.32A1.3,1.3,0,0,1,211.33,293.53Z"/><path class="q" d="M218.21,282a1.39,1.39,0,0,1,1.9.32,1.3,1.3,0,0,1-.33,1.84,1.39,1.39,0,0,1-1.9-.32A1.3,1.3,0,0,1,218.21,282Z"/><path class="q" d="M217.48,300.6a1.39,1.39,0,0,1,1.9.32,1.3,1.3,0,0,1-.33,1.84,1.39,1.39,0,0,1-1.9-.32A1.3,1.3,0,0,1,217.48,300.6Z"/><path class="q" d="M218.76,295.79a1.39,1.39,0,0,1,1.9.32,1.3,1.3,0,0,1-.33,1.84,1.39,1.39,0,0,1-1.9-.32A1.3,1.3,0,0,1,218.76,295.79Z"/><path class="q" d="M220.13,306.87a1.39,1.39,0,0,1,1.9.32,1.3,1.3,0,0,1-.33,1.84,1.39,1.39,0,0,1-1.9-.32A1.3,1.3,0,0,1,220.13,306.87Z"/><path class="q" d="M234.54,292.64a1.39,1.39,0,0,1,1.9.32,1.3,1.3,0,0,1-.33,1.84,1.39,1.39,0,0,1-1.9-.32A1.3,1.3,0,0,1,234.54,292.64Z"/><path class="q" d="M213.54,304.54a1.39,1.39,0,0,1,1.9.32,1.3,1.3,0,0,1-.33,1.84,1.39,1.39,0,0,1-1.9-.32A1.3,1.3,0,0,1,213.54,304.54Z"/><path class="q" d="M202,271.62a1.39,1.39,0,0,1,1.9.32,1.3,1.3,0,0,1-.33,1.84,1.39,1.39,0,0,1-1.9-.32A1.3,1.3,0,0,1,202,271.62Z"/><path class="q" d="M218.21,287.52a1.39,1.39,0,0,1,1.9.32,1.3,1.3,0,0,1-.33,1.84,1.39,1.39,0,0,1-1.9-.32A1.3,1.3,0,0,1,218.21,287.52Z"/><path class="q" d="M206.59,287.54a1.39,1.39,0,0,1,1.9.32,1.3,1.3,0,0,1-.33,1.84,1.39,1.39,0,0,1-1.9-.32A1.3,1.3,0,0,1,206.59,287.54Z"/><path class="q" d="M180.44,127.8a1.39,1.39,0,0,1,1.9.32A1.3,1.3,0,0,1,182,130a1.39,1.39,0,0,1-1.9-.32A1.3,1.3,0,0,1,180.44,127.8Z"/><path class="q" d="M182.23,138.07a1.39,1.39,0,0,1,1.9.32,1.3,1.3,0,0,1-.33,1.84,1.39,1.39,0,0,1-1.9-.32A1.3,1.3,0,0,1,182.23,138.07Z"/><path class="q" d="M175.18,135.76a1.39,1.39,0,0,1,1.9.32,1.3,1.3,0,0,1-.33,1.84,1.39,1.39,0,0,1-1.9-.32A1.3,1.3,0,0,1,175.18,135.76Z"/><path class="q" d="M176.46,130.94a1.39,1.39,0,0,1,1.9.32,1.3,1.3,0,0,1-.33,1.84,1.39,1.39,0,0,1-1.9-.32A1.3,1.3,0,0,1,176.46,130.94Z"/><path class="q" d="M177.84,142a1.39,1.39,0,0,1,1.9.32,1.3,1.3,0,0,1-.33,1.84,1.39,1.39,0,0,1-1.9-.32A1.3,1.3,0,0,1,177.84,142Z"/><path class="q" d="M171.24,139.69a1.39,1.39,0,0,1,1.9.32,1.3,1.3,0,0,1-.33,1.84,1.39,1.39,0,0,1-1.9-.32A1.3,1.3,0,0,1,171.24,139.69Z"/><path class="q" d="M168,156.3a1.39,1.39,0,0,1,1.9.32,1.3,1.3,0,0,1-.33,1.84,1.39,1.39,0,0,1-1.9-.32A1.3,1.3,0,0,1,168,156.3Z"/><path class="q" d="M169.52,136.54a1.39,1.39,0,0,1,1.9.32,1.3,1.3,0,0,1-.33,1.84,1.39,1.39,0,0,1-1.9-.32A1.3,1.3,0,0,1,169.52,136.54Z"/><path class="q" d="M167.1,142.77a1.39,1.39,0,0,1,1.9.32,1.3,1.3,0,0,1-.33,1.84,1.39,1.39,0,0,1-1.9-.32A1.3,1.3,0,0,1,167.1,142.77Z"/><path class="q" d="M161.38,149a1.39,1.39,0,0,1,1.9.32,1.3,1.3,0,0,1-.33,1.84,1.39,1.39,0,0,1-1.9-.32A1.3,1.3,0,0,1,161.38,149Z"/><path class="q" d="M162.75,160.08a1.39,1.39,0,0,1,1.9.32,1.3,1.3,0,0,1-.33,1.84,1.39,1.39,0,0,1-1.9-.32A1.3,1.3,0,0,1,162.75,160.08Z"/><path class="q" d="M171.53,148.1a1.39,1.39,0,0,1,1.9.32,1.3,1.3,0,0,1-.33,1.84,1.39,1.39,0,0,1-1.9-.32A1.3,1.3,0,0,1,171.53,148.1Z"/><path class="q" d="M156.15,157.75a1.39,1.39,0,0,1,1.9.32,1.3,1.3,0,0,1-.33,1.84,1.39,1.39,0,0,1-1.9-.32A1.3,1.3,0,0,1,156.15,157.75Z"/><path class="q" d="M174.08,141.52a1.39,1.39,0,0,1,1.9.32,1.3,1.3,0,0,1-.33,1.84,1.39,1.39,0,0,1-1.9-.32A1.3,1.3,0,0,1,174.08,141.52Z"/><path class="q" d="M146.6,163a1.39,1.39,0,0,1,1.9.32,1.3,1.3,0,0,1-.33,1.84,1.39,1.39,0,0,1-1.9-.32A1.3,1.3,0,0,1,146.6,163Z"/><path class="q" d="M157.49,168a1.39,1.39,0,0,1,1.9.32,1.3,1.3,0,0,1-.33,1.84,1.39,1.39,0,0,1-1.9-.32A1.3,1.3,0,0,1,157.49,168Z"/><path class="q" d="M158.77,163.23a1.39,1.39,0,0,1,1.9.32,1.3,1.3,0,0,1-.33,1.84,1.39,1.39,0,0,1-1.9-.32A1.3,1.3,0,0,1,158.77,163.23Z"/><path class="q" d="M153.55,172a1.39,1.39,0,0,1,1.9.32,1.3,1.3,0,0,1-.33,1.84,1.39,1.39,0,0,1-1.9-.32A1.3,1.3,0,0,1,153.55,172Z"/><path class="q" d="M158.22,155a1.39,1.39,0,0,1,1.9.32,1.3,1.3,0,0,1-.33,1.84,1.39,1.39,0,0,1-1.9-.32A1.3,1.3,0,0,1,158.22,155Z"/><path class="q" d="M150.52,158a1.39,1.39,0,0,1,1.9.32,1.3,1.3,0,0,1-.33,1.84,1.39,1.39,0,0,1-1.9-.32A1.3,1.3,0,0,1,150.52,158Z"/><path class="q" d="M222,267.38a1.39,1.39,0,0,1,1.9.32,1.3,1.3,0,0,1-.33,1.84,1.39,1.39,0,0,1-1.9-.32A1.3,1.3,0,0,1,222,267.38Z"/><path class="q" d="M214.81,263.69a1.39,1.39,0,0,1,1.9.32,1.3,1.3,0,0,1-.33,1.84,1.39,1.39,0,0,1-1.9-.32A1.3,1.3,0,0,1,214.81,263.69Z"/><path class="q" d="M225.14,178.77a1.39,1.39,0,0,1,1.9.32,1.3,1.3,0,0,1-.33,1.84,1.39,1.39,0,0,1-1.9-.32A1.3,1.3,0,0,1,225.14,178.77Z"/></g></svg>