<svg id="Layer_1" data-name="Layer 1" xmlns="http://www.w3.org/2000/svg" viewBox="0 0 676.18 300"><defs><style>.cls-1{fill:#4da04d;}.cls-2{fill:#73c4ff;}.cls-10,.cls-11,.cls-12,.cls-15,.cls-16,.cls-27,.cls-3,.cls-33,.cls-4,.cls-5,.cls-6,.cls-7,.cls-8,.cls-9{fill:none;stroke-miterlimit:10;}.cls-3{stroke:#a67c52;stroke-width:20px;}.cls-4{stroke:#1a1a1a;stroke-width:27px;}.cls-5{stroke:#f2f2f2;}.cls-10,.cls-5{stroke-width:2px;}.cls-6,.cls-7{stroke:#000;}.cls-27,.cls-33,.cls-7{stroke-width:0.5px;}.cls-8,.cls-9{stroke:#0f0c0a;}.cls-9{stroke-width:3px;}.cls-10{stroke:#aaa39a;}.cls-11{stroke:#fbe604;stroke-linecap:round;stroke-width:2.5px;}.cls-12{stroke:#999;}.cls-13{fill:#fbe604;}.cls-14{fill:#0f0c0a;}.cls-15{stroke:#59504f;}.cls-16{stroke:#342d2b;}.cls-17{fill:#342d2b;}.cls-18{fill:#1b1616;}.cls-19{fill:#b5afa6;}.cls-20{fill:#4d4d4d;}.cls-21{fill:#91551d;}.cls-22{fill:#805329;}.cls-23{fill:#165420;}.cls-24{fill:#1f6026;}.cls-25{fill:#175922;}.cls-26{fill:#452d16;}.cls-27{stroke:#2f7a21;}.cls-28{fill:#7f258f;}.cls-29{fill:#ebf02b;}.cls-30{fill:#d09d00;}.cls-31{fill:#00d095;}.cls-32{fill:#a22b00;}.cls-33{stroke:#fff;}</style></defs><title>park</title><rect class="cls-1" width="676.18" height="300"/><ellipse class="cls-2" cx="523.46" cy="230.1" rx="125.77" ry="52.42"/><path class="cls-3" d="M-19.3,226.93a499.37,499.37,0,0,0,259.2-28.55c87-34.28,163.65-92.83,253.2-119.66,67.18-20.13,138.35-21.4,208.48-22.47"/><path class="cls-4" d="M-19.3,261.86a499.37,499.37,0,0,0,259.2-28.55c87-34.28,163.65-92.83,253.2-119.66,67.18-20.13,138.35-21.4,208.48-22.47"/><path class="cls-5" d="M-19.3,262.58A499.37,499.37,0,0,0,239.9,234c87-34.28,163.65-92.83,253.2-119.66C560.29,94.24,631.46,93,701.59,91.9"/><path class="cls-6" d="M569.82,133.15h-6.06v3.29a1.6,1.6,0,0,0,1.54,1.52l2.58.23"/><line class="cls-7" x1="569.18" y1="134.34" x2="563.76" y2="134.34"/><line class="cls-7" x1="569.18" y1="135.31" x2="563.77" y2="135.31"/><line class="cls-7" x1="569.18" y1="136.14" x2="563.77" y2="136.15"/><line class="cls-7" x1="569.18" y1="137" x2="563.77" y2="137.01"/><line class="cls-8" x1="589.94" y1="154.16" x2="598.52" y2="154.16"/><line class="cls-8" x1="599.39" y1="155.21" x2="599.39" y2="163.79"/><line class="cls-8" x1="599.38" y1="144.53" x2="599.39" y2="153.11"/><line class="cls-8" x1="600.43" y1="154.16" x2="609.02" y2="154.15"/><line class="cls-8" x1="600.13" y1="153.42" x2="606.19" y2="147.35"/><line class="cls-8" x1="592.58" y1="160.97" x2="598.65" y2="154.9"/><line class="cls-8" x1="598.65" y1="153.42" x2="592.57" y2="147.35"/><line class="cls-8" x1="606.2" y1="160.96" x2="600.13" y2="154.9"/><circle class="cls-9" cx="599.39" cy="154.16" r="9.63"/><path class="cls-10" d="M570.45,132.28s.47-1.19-.34-1.25a6.52,6.52,0,0,1-3.32-.7"/><path class="cls-11" d="M590.92,147.69A10.65,10.65,0,0,1,609.56,151"/><circle class="cls-12" cx="599.39" cy="154.16" r="9.63"/><polygon class="cls-13" points="591.64 135.21 590.44 134.93 590.17 135.62 570.03 135.63 569.48 137.06 589.57 137.05 583.28 155.4 584.8 155.4 591.64 135.21"/><circle class="cls-9" cx="561.34" cy="154.18" r="9.63"/><polygon class="cls-14" points="569.78 131.97 566.84 140.61 566.63 140.53 566.47 140.95 567.98 141.53 568.1 141.21 582.75 155.4 584.8 155.4 568.44 139.77 571.42 131.97 569.78 131.97"/><polygon class="cls-14" points="583.89 155.4 583.96 156.24 597.72 154.9 597.64 154.16 583.89 155.4"/><polygon class="cls-14" points="591.11 136.76 590.76 137.8 598.76 152.58 599.38 152.49 591.11 136.76"/><line class="cls-15" x1="581.74" y1="153.28" x2="586.52" y2="158.1"/><line class="cls-8" x1="561.34" y1="155.23" x2="561.34" y2="163.81"/><line class="cls-8" x1="561.33" y1="144.55" x2="561.34" y2="153.14"/><line class="cls-8" x1="562.38" y1="154.18" x2="570.97" y2="154.18"/><line class="cls-8" x1="551.71" y1="154.19" x2="560.29" y2="154.18"/><line class="cls-8" x1="562.08" y1="153.44" x2="568.14" y2="147.37"/><line class="cls-8" x1="554.53" y1="161" x2="560.6" y2="154.92"/><line class="cls-8" x1="560.6" y1="153.44" x2="554.52" y2="147.38"/><line class="cls-8" x1="568.15" y1="160.99" x2="562.08" y2="154.92"/><line class="cls-15" x1="586.54" y1="153.3" x2="581.72" y2="158.08"/><circle class="cls-12" cx="561.34" cy="154.18" r="9.63"/><path class="cls-11" d="M560.4,143.66a10.27,10.27,0,0,1,1-.08,10.15,10.15,0,0,1,10.45,9.85"/><polygon class="cls-13" points="567.76 141.45 566.67 141.03 561.79 152.45 562.28 152.73 567.76 141.45"/><circle class="cls-16" cx="584.13" cy="155.69" r="3.39"/><path class="cls-14" d="M592.8,131.39s2.92.41,4.1-.51c.32-.25-.22-1-.54-1.21-1.19-.93-5.84.49-8.33.16-1.5.29-1.75,1,1.11,1.33l2.49.16-1.19,3.61,1.2.28Z"/><path class="cls-17" d="M583.95,155s.36-.1.52.57-.2.75-.2.75l-5.41,1.2s-.24,0-.34-.42.1-.54.1-.54Z"/><rect class="cls-18" x="575.95" y="156.63" width="4.66" height="1.04" rx="0.52" ry="0.52" transform="translate(1156.66 313.93) rotate(179.96)"/><path class="cls-14" d="M597.33,154.16a2.06,2.06,0,1,1,2.06,2.06A2.06,2.06,0,0,1,597.33,154.16Zm2.06.77a.77.77,0,1,0-.77-.77A.77.77,0,0,0,599.39,154.93Z"/><path class="cls-14" d="M559.66,154.18a1.68,1.68,0,1,1,1.68,1.67A1.68,1.68,0,0,1,559.66,154.18Zm1.68.63a.63.63,0,1,0-.63-.63A.63.63,0,0,0,561.34,154.81Z"/><rect class="cls-19" x="576.25" y="156.95" width="4.07" height="0.38" rx="0.19" ry="0.19" transform="translate(1156.66 313.93) rotate(179.96)"/><path class="cls-16" d="M584.13,152.29l15.76-.13a2,2,0,0,1,.12,4l-15.88,3"/><path class="cls-14" d="M566.24,130.42a.54.54,0,1,1,.54.54A.54.54,0,0,1,566.24,130.42Z"/><circle class="cls-17" cx="566.79" cy="130.42" r="0.46"/><rect class="cls-20" x="65.85" y="183.54" width="2.76" height="29.02"/><rect class="cls-20" x="121.93" y="182.65" width="2.44" height="29.91"/><rect class="cls-21" x="61.13" y="196.28" width="67.96" height="3.53"/><rect class="cls-20" x="66.67" y="199.81" width="57.7" height="2.59"/><rect class="cls-21" x="63.14" y="180.61" width="63.93" height="4.07"/><rect class="cls-21" x="63.14" y="185.38" width="63.93" height="4.07"/><rect class="cls-21" x="63.14" y="190" width="63.93" height="4.07"/><rect class="cls-20" x="513.57" y="135.24" width="2.76" height="29.02"/><rect class="cls-20" x="569.65" y="134.35" width="2.44" height="29.91"/><rect class="cls-21" x="508.85" y="147.98" width="67.96" height="3.53"/><rect class="cls-20" x="514.4" y="151.51" width="57.7" height="2.59"/><rect class="cls-21" x="510.87" y="132.32" width="63.93" height="4.07"/><rect class="cls-21" x="510.87" y="137.08" width="63.93" height="4.07"/><rect class="cls-21" x="510.87" y="141.7" width="63.93" height="4.07"/><polygon class="cls-22" points="259.33 175.32 237.64 175.32 237.64 100.99 258.33 100.99 259.33 175.32"/><ellipse class="cls-23" cx="231.9" cy="103.51" rx="21" ry="27.79" transform="translate(90.14 314.2) rotate(-80.12)"/><ellipse class="cls-23" cx="254.24" cy="86.08" rx="21" ry="27.79" transform="translate(125.81 321.78) rotate(-80.12)"/><ellipse class="cls-24" cx="215.75" cy="96.13" rx="16.51" ry="21.85" transform="translate(92.16 297.42) rotate(-82.47)"/><ellipse class="cls-24" cx="259.56" cy="90.18" rx="16.51" ry="21.85" transform="matrix(0.17, -0.99, 0.99, 0.17, 126.18, 330.42)"/><ellipse class="cls-25" cx="266.2" cy="104.01" rx="21" ry="27.79" transform="translate(118.06 348.42) rotate(-80.12)"/><ellipse class="cls-23" cx="233.02" cy="82.39" rx="21" ry="27.79" transform="translate(111.87 297.81) rotate(-80.12)"/><path class="cls-26" d="M146.61,286.58H205a14.09,14.09,0,0,1,14.09,14.09v0a0,0,0,0,1,0,0H132.53a0,0,0,0,1,0,0v0A14.09,14.09,0,0,1,146.61,286.58Z"/><path class="cls-26" d="M270.7,286.58h58.37a14.09,14.09,0,0,1,14.09,14.09v0a0,0,0,0,1,0,0H256.61a0,0,0,0,1,0,0v0a14.09,14.09,0,0,1,14.09-14.09Z"/><line class="cls-27" x1="153.65" y1="286.63" x2="154.24" y2="272.5"/><ellipse class="cls-28" cx="154.24" cy="273.4" rx="0.59" ry="1.55"/><ellipse class="cls-28" cx="154.24" cy="270.31" rx="0.59" ry="1.55"/><ellipse class="cls-28" cx="152.69" cy="271.85" rx="1.55" ry="0.59"/><ellipse class="cls-28" cx="155.79" cy="271.85" rx="1.55" ry="0.59"/><ellipse class="cls-28" cx="153.14" cy="270.76" rx="0.59" ry="1.55" transform="translate(-146.6 187.59) rotate(-45)"/><ellipse class="cls-28" cx="155.33" cy="272.95" rx="0.59" ry="1.55" transform="translate(-147.51 189.78) rotate(-45)"/><ellipse class="cls-28" cx="155.33" cy="270.76" rx="1.55" ry="0.59" transform="translate(-145.96 189.14) rotate(-45)"/><ellipse class="cls-28" cx="153.14" cy="272.95" rx="1.55" ry="0.59" transform="translate(-148.15 188.23) rotate(-45)"/><circle class="cls-29" cx="154.24" cy="271.85" r="0.64"/><line class="cls-27" x1="162.2" y1="286.63" x2="162.79" y2="272.5"/><ellipse class="cls-30" cx="162.79" cy="273.4" rx="0.59" ry="1.55"/><ellipse class="cls-30" cx="162.79" cy="270.31" rx="0.59" ry="1.55"/><ellipse class="cls-30" cx="161.24" cy="271.85" rx="1.55" ry="0.59"/><ellipse class="cls-30" cx="164.34" cy="271.85" rx="1.55" ry="0.59"/><ellipse class="cls-30" cx="161.69" cy="270.76" rx="0.59" ry="1.55" transform="translate(-144.1 193.64) rotate(-45)"/><ellipse class="cls-30" cx="163.88" cy="272.95" rx="0.59" ry="1.55" transform="translate(-145 195.83) rotate(-45)"/><ellipse class="cls-30" cx="163.88" cy="270.76" rx="1.55" ry="0.59" transform="translate(-143.45 195.19) rotate(-45)"/><ellipse class="cls-30" cx="161.69" cy="272.95" rx="1.55" ry="0.59" transform="translate(-145.65 194.28) rotate(-45)"/><circle class="cls-29" cx="162.79" cy="271.85" r="0.64"/><line class="cls-27" x1="170.23" y1="286.63" x2="170.82" y2="272.5"/><ellipse class="cls-28" cx="170.82" cy="273.41" rx="0.59" ry="1.55"/><ellipse class="cls-28" cx="170.82" cy="270.31" rx="0.59" ry="1.55"/><ellipse class="cls-28" cx="169.27" cy="271.86" rx="1.55" ry="0.59"/><ellipse class="cls-28" cx="172.37" cy="271.86" rx="1.55" ry="0.59"/><ellipse class="cls-28" cx="169.73" cy="270.76" rx="0.59" ry="1.55" transform="translate(-141.75 199.32) rotate(-45)"/><ellipse class="cls-28" cx="171.92" cy="272.95" rx="0.59" ry="1.55" transform="translate(-142.65 201.51) rotate(-45)"/><ellipse class="cls-28" cx="171.92" cy="270.76" rx="1.55" ry="0.59" transform="translate(-141.1 200.87) rotate(-45)"/><ellipse class="cls-28" cx="169.73" cy="272.95" rx="1.55" ry="0.59" transform="translate(-143.29 199.96) rotate(-45)"/><circle class="cls-29" cx="170.82" cy="271.86" r="0.64"/><line class="cls-27" x1="178.69" y1="286.34" x2="179.27" y2="272.21"/><ellipse class="cls-30" cx="179.27" cy="273.11" rx="0.59" ry="1.55"/><ellipse class="cls-30" cx="179.27" cy="270.01" rx="0.59" ry="1.55"/><ellipse class="cls-30" cx="177.72" cy="271.56" rx="1.55" ry="0.59"/><ellipse class="cls-30" cx="180.82" cy="271.56" rx="1.55" ry="0.59"/><ellipse class="cls-30" cx="178.18" cy="270.47" rx="0.59" ry="1.55" transform="translate(-139.06 205.21) rotate(-45)"/><ellipse class="cls-30" cx="180.37" cy="272.66" rx="0.59" ry="1.55" transform="translate(-139.97 207.4) rotate(-45)"/><ellipse class="cls-30" cx="180.37" cy="270.47" rx="1.55" ry="0.59" transform="translate(-138.42 206.76) rotate(-45)"/><ellipse class="cls-30" cx="178.18" cy="272.66" rx="1.55" ry="0.59" transform="translate(-140.61 205.85) rotate(-45)"/><circle class="cls-29" cx="179.27" cy="271.56" r="0.64"/><line class="cls-27" x1="189.03" y1="287.34" x2="189.62" y2="273.2"/><ellipse class="cls-28" cx="189.62" cy="274.11" rx="0.59" ry="1.55"/><ellipse class="cls-28" cx="189.62" cy="271.01" rx="0.59" ry="1.55"/><ellipse class="cls-28" cx="188.07" cy="272.56" rx="1.55" ry="0.59"/><ellipse class="cls-28" cx="191.17" cy="272.56" rx="1.55" ry="0.59"/><ellipse class="cls-28" cx="188.52" cy="271.47" rx="0.59" ry="1.55" transform="translate(-136.74 212.82) rotate(-45)"/><ellipse class="cls-28" cx="190.72" cy="273.66" rx="0.59" ry="1.55" transform="translate(-137.65 215.01) rotate(-45)"/><ellipse class="cls-28" cx="190.72" cy="271.47" rx="1.55" ry="0.59" transform="translate(-136.1 214.37) rotate(-45)"/><ellipse class="cls-28" cx="188.52" cy="273.66" rx="1.55" ry="0.59" transform="translate(-138.29 213.46) rotate(-45)"/><circle class="cls-29" cx="189.62" cy="272.56" r="0.64"/><line class="cls-27" x1="201.53" y1="286.9" x2="202.12" y2="272.77"/><ellipse class="cls-30" cx="202.12" cy="273.67" rx="0.59" ry="1.55"/><ellipse class="cls-30" cx="202.12" cy="270.57" rx="0.59" ry="1.55"/><ellipse class="cls-30" cx="200.57" cy="272.12" rx="1.55" ry="0.59"/><ellipse class="cls-30" cx="203.67" cy="272.12" rx="1.55" ry="0.59"/><ellipse class="cls-30" cx="201.02" cy="271.03" rx="0.59" ry="1.55" transform="translate(-132.77 221.53) rotate(-45)"/><ellipse class="cls-30" cx="203.22" cy="273.22" rx="0.59" ry="1.55" transform="translate(-133.67 223.72) rotate(-45)"/><ellipse class="cls-30" cx="203.22" cy="271.03" rx="1.55" ry="0.59" transform="translate(-132.12 223.08) rotate(-45)"/><ellipse class="cls-30" cx="201.02" cy="273.22" rx="1.55" ry="0.59" transform="translate(-134.32 222.17) rotate(-45)"/><circle class="cls-29" cx="202.12" cy="272.12" r="0.64"/><line class="cls-27" x1="194.99" y1="292.51" x2="195.58" y2="278.38"/><ellipse class="cls-31" cx="195.58" cy="280.29" rx="0.59" ry="1.55"/><ellipse class="cls-31" cx="195.58" cy="277.19" rx="0.59" ry="1.55"/><ellipse class="cls-31" cx="194.03" cy="278.74" rx="1.55" ry="0.59"/><ellipse class="cls-31" cx="197.13" cy="278.74" rx="1.55" ry="0.59"/><ellipse class="cls-31" cx="194.48" cy="277.64" rx="0.59" ry="1.55" transform="translate(-139.36 218.84) rotate(-45)"/><ellipse class="cls-31" cx="196.67" cy="279.83" rx="0.59" ry="1.55" transform="translate(-140.27 221.03) rotate(-45)"/><ellipse class="cls-31" cx="196.67" cy="277.64" rx="1.55" ry="0.59" transform="translate(-138.72 220.39) rotate(-45)"/><ellipse class="cls-31" cx="194.48" cy="279.83" rx="1.55" ry="0.59" transform="translate(-140.91 219.48) rotate(-45)"/><circle class="cls-29" cx="195.58" cy="278.74" r="0.64"/><line class="cls-27" x1="183.56" y1="293.13" x2="184.15" y2="278.99"/><ellipse class="cls-32" cx="184.15" cy="280.9" rx="0.59" ry="1.55"/><ellipse class="cls-32" cx="184.15" cy="277.8" rx="0.59" ry="1.55"/><ellipse class="cls-32" cx="182.6" cy="279.35" rx="1.55" ry="0.59"/><ellipse class="cls-32" cx="185.7" cy="279.35" rx="1.55" ry="0.59"/><ellipse class="cls-32" cx="183.06" cy="278.25" rx="0.59" ry="1.55" transform="translate(-143.14 210.94) rotate(-45)"/><ellipse class="cls-32" cx="185.25" cy="280.44" rx="0.59" ry="1.55" transform="translate(-144.05 213.13) rotate(-45)"/><ellipse class="cls-32" cx="185.25" cy="278.25" rx="1.55" ry="0.59" transform="translate(-142.5 212.49) rotate(-45)"/><ellipse class="cls-32" cx="183.06" cy="280.44" rx="1.55" ry="0.59" transform="translate(-144.69 211.58) rotate(-45)"/><circle class="cls-29" cx="184.15" cy="279.35" r="0.64"/><line class="cls-27" x1="174.16" y1="292.82" x2="174.75" y2="278.69"/><ellipse class="cls-31" cx="174.75" cy="280.59" rx="0.59" ry="1.55"/><ellipse class="cls-31" cx="174.75" cy="277.49" rx="0.59" ry="1.55"/><ellipse class="cls-31" cx="173.2" cy="279.04" rx="1.55" ry="0.59"/><ellipse class="cls-31" cx="176.3" cy="279.04" rx="1.55" ry="0.59"/><ellipse class="cls-31" cx="173.66" cy="277.95" rx="0.59" ry="1.55" transform="translate(-145.68 204.2) rotate(-45)"/><ellipse class="cls-31" cx="175.85" cy="280.14" rx="0.59" ry="1.55" transform="translate(-146.58 206.39) rotate(-45)"/><ellipse class="cls-31" cx="175.85" cy="277.95" rx="1.55" ry="0.59" transform="translate(-145.03 205.75) rotate(-45)"/><ellipse class="cls-31" cx="173.66" cy="280.14" rx="1.55" ry="0.59" transform="translate(-147.22 204.85) rotate(-45)"/><circle class="cls-29" cx="174.75" cy="279.04" r="0.64"/><line class="cls-27" x1="166.39" y1="292.82" x2="166.98" y2="278.69"/><ellipse class="cls-32" cx="166.98" cy="280.59" rx="0.59" ry="1.55"/><ellipse class="cls-32" cx="166.98" cy="277.49" rx="0.59" ry="1.55"/><ellipse class="cls-32" cx="165.43" cy="279.04" rx="1.55" ry="0.59"/><ellipse class="cls-32" cx="168.53" cy="279.04" rx="1.55" ry="0.59"/><ellipse class="cls-32" cx="165.89" cy="277.95" rx="0.59" ry="1.55" transform="translate(-147.95 198.71) rotate(-45)"/><ellipse class="cls-32" cx="168.08" cy="280.14" rx="0.59" ry="1.55" transform="translate(-148.86 200.9) rotate(-45)"/><ellipse class="cls-32" cx="168.08" cy="277.95" rx="1.55" ry="0.59" transform="translate(-147.31 200.26) rotate(-45)"/><ellipse class="cls-32" cx="165.89" cy="280.14" rx="1.55" ry="0.59" transform="translate(-149.5 199.35) rotate(-45)"/><circle class="cls-29" cx="166.98" cy="279.04" r="0.64"/><line class="cls-27" x1="157.01" y1="293.02" x2="157.6" y2="278.88"/><ellipse class="cls-31" cx="157.6" cy="280.79" rx="0.59" ry="1.55"/><ellipse class="cls-31" cx="157.6" cy="277.69" rx="0.59" ry="1.55"/><ellipse class="cls-31" cx="156.05" cy="279.24" rx="1.55" ry="0.59"/><ellipse class="cls-31" cx="159.15" cy="279.24" rx="1.55" ry="0.59"/><ellipse class="cls-31" cx="156.5" cy="278.15" rx="0.59" ry="1.55" transform="translate(-150.84 192.13) rotate(-45)"/><ellipse class="cls-31" cx="158.69" cy="280.34" rx="0.59" ry="1.55" transform="translate(-151.75 194.32) rotate(-45)"/><ellipse class="cls-31" cx="158.69" cy="278.15" rx="1.55" ry="0.59" transform="translate(-150.2 193.68) rotate(-45)"/><ellipse class="cls-31" cx="156.5" cy="280.34" rx="1.55" ry="0.59" transform="translate(-152.39 192.77) rotate(-45)"/><circle class="cls-29" cx="157.6" cy="279.24" r="0.64"/><line class="cls-27" x1="147.45" y1="293.02" x2="148.04" y2="278.88"/><ellipse class="cls-32" cx="148.04" cy="280.79" rx="0.59" ry="1.55"/><ellipse class="cls-32" cx="148.04" cy="277.69" rx="0.59" ry="1.55"/><ellipse class="cls-32" cx="146.49" cy="279.24" rx="1.55" ry="0.59"/><ellipse class="cls-32" cx="149.59" cy="279.24" rx="1.55" ry="0.59"/><ellipse class="cls-32" cx="146.94" cy="278.15" rx="0.59" ry="1.55" transform="translate(-153.64 185.37) rotate(-45)"/><ellipse class="cls-32" cx="149.14" cy="280.34" rx="0.59" ry="1.55" transform="translate(-154.55 187.56) rotate(-45)"/><ellipse class="cls-32" cx="149.14" cy="278.15" rx="1.55" ry="0.59" transform="translate(-153 186.92) rotate(-45)"/><ellipse class="cls-32" cx="146.94" cy="280.34" rx="1.55" ry="0.59" transform="translate(-155.19 186.01) rotate(-45)"/><circle class="cls-29" cx="148.04" cy="279.24" r="0.64"/><line class="cls-27" x1="208.3" y1="293.13" x2="208.89" y2="278.99"/><ellipse class="cls-32" cx="208.89" cy="280.9" rx="0.59" ry="1.55"/><ellipse class="cls-32" cx="208.89" cy="277.8" rx="0.59" ry="1.55"/><ellipse class="cls-32" cx="207.34" cy="279.35" rx="1.55" ry="0.59"/><ellipse class="cls-32" cx="210.44" cy="279.35" rx="1.55" ry="0.59"/><ellipse class="cls-32" cx="207.79" cy="278.25" rx="0.59" ry="1.55" transform="translate(-135.89 228.43) rotate(-45)"/><ellipse class="cls-32" cx="209.99" cy="280.44" rx="0.59" ry="1.55" transform="translate(-136.8 230.62) rotate(-45)"/><ellipse class="cls-32" cx="209.99" cy="278.25" rx="1.55" ry="0.59" transform="translate(-135.25 229.98) rotate(-45)"/><ellipse class="cls-32" cx="207.79" cy="280.44" rx="1.55" ry="0.59" transform="translate(-137.44 229.07) rotate(-45)"/><circle class="cls-29" cx="208.89" cy="279.35" r="0.64"/><line class="cls-27" x1="276.75" y1="286.67" x2="277.34" y2="272.54"/><ellipse class="cls-28" cx="277.34" cy="273.45" rx="0.59" ry="1.55"/><ellipse class="cls-28" cx="277.34" cy="270.35" rx="0.59" ry="1.55"/><ellipse class="cls-28" cx="275.79" cy="271.9" rx="1.55" ry="0.59"/><ellipse class="cls-28" cx="278.89" cy="271.9" rx="1.55" ry="0.59"/><ellipse class="cls-28" cx="276.24" cy="270.8" rx="0.59" ry="1.55" transform="translate(-110.58 274.65) rotate(-45)"/><ellipse class="cls-28" cx="278.43" cy="272.99" rx="0.59" ry="1.55" transform="translate(-111.48 276.84) rotate(-45)"/><ellipse class="cls-28" cx="278.43" cy="270.8" rx="1.55" ry="0.59" transform="translate(-109.93 276.2) rotate(-45)"/><ellipse class="cls-28" cx="276.24" cy="272.99" rx="1.55" ry="0.59" transform="translate(-112.13 275.29) rotate(-45)"/><circle class="cls-29" cx="277.34" cy="271.9" r="0.64"/><line class="cls-27" x1="285.3" y1="286.67" x2="285.89" y2="272.54"/><ellipse class="cls-30" cx="285.89" cy="273.45" rx="0.59" ry="1.55"/><ellipse class="cls-30" cx="285.89" cy="270.35" rx="0.59" ry="1.55"/><ellipse class="cls-30" cx="284.34" cy="271.9" rx="1.55" ry="0.59"/><ellipse class="cls-30" cx="287.44" cy="271.9" rx="1.55" ry="0.59"/><ellipse class="cls-30" cx="284.79" cy="270.8" rx="0.59" ry="1.55" transform="translate(-108.07 280.69) rotate(-45)"/><ellipse class="cls-30" cx="286.98" cy="272.99" rx="0.59" ry="1.55" transform="translate(-108.98 282.88) rotate(-45)"/><ellipse class="cls-30" cx="286.98" cy="270.8" rx="1.55" ry="0.59" transform="translate(-107.43 282.24) rotate(-45)"/><ellipse class="cls-30" cx="284.79" cy="272.99" rx="1.55" ry="0.59" transform="translate(-109.62 281.34) rotate(-45)"/><circle class="cls-29" cx="285.89" cy="271.9" r="0.64"/><line class="cls-27" x1="293.33" y1="286.68" x2="293.92" y2="272.54"/><ellipse class="cls-28" cx="293.92" cy="273.45" rx="0.59" ry="1.55"/><ellipse class="cls-28" cx="293.92" cy="270.35" rx="0.59" ry="1.55"/><ellipse class="cls-28" cx="292.37" cy="271.9" rx="1.55" ry="0.59"/><ellipse class="cls-28" cx="295.47" cy="271.9" rx="1.55" ry="0.59"/><ellipse class="cls-28" cx="292.82" cy="270.8" rx="0.59" ry="1.55" transform="translate(-105.72 286.37) rotate(-45)"/><ellipse class="cls-28" cx="295.02" cy="272.99" rx="0.59" ry="1.55" transform="translate(-106.63 288.57) rotate(-45)"/><ellipse class="cls-28" cx="295.02" cy="270.8" rx="1.55" ry="0.59" transform="translate(-105.08 287.92) rotate(-45)"/><ellipse class="cls-28" cx="292.82" cy="272.99" rx="1.55" ry="0.59" transform="translate(-107.27 287.02) rotate(-45)"/><circle class="cls-29" cx="293.92" cy="271.9" r="0.64"/><line class="cls-27" x1="301.78" y1="286.38" x2="302.37" y2="272.25"/><ellipse class="cls-30" cx="302.37" cy="273.16" rx="0.59" ry="1.55"/><ellipse class="cls-30" cx="302.37" cy="270.06" rx="0.59" ry="1.55"/><ellipse class="cls-30" cx="300.82" cy="271.61" rx="1.55" ry="0.59"/><ellipse class="cls-30" cx="303.92" cy="271.61" rx="1.55" ry="0.59"/><ellipse class="cls-30" cx="301.28" cy="270.51" rx="0.59" ry="1.55" transform="translate(-103.04 292.27) rotate(-45)"/><ellipse class="cls-30" cx="303.47" cy="272.7" rx="0.59" ry="1.55" transform="translate(-103.95 294.46) rotate(-45)"/><ellipse class="cls-30" cx="303.47" cy="270.51" rx="1.55" ry="0.59" transform="translate(-102.4 293.81) rotate(-45)"/><ellipse class="cls-30" cx="301.28" cy="272.7" rx="1.55" ry="0.59" transform="translate(-104.59 292.91) rotate(-45)"/><circle class="cls-29" cx="302.37" cy="271.61" r="0.64"/><line class="cls-27" x1="312.13" y1="287.38" x2="312.72" y2="273.25"/><ellipse class="cls-28" cx="312.72" cy="274.15" rx="0.59" ry="1.55"/><ellipse class="cls-28" cx="312.72" cy="271.05" rx="0.59" ry="1.55"/><ellipse class="cls-28" cx="311.17" cy="272.6" rx="1.55" ry="0.59"/><ellipse class="cls-28" cx="314.27" cy="272.6" rx="1.55" ry="0.59"/><ellipse class="cls-28" cx="311.62" cy="271.51" rx="0.59" ry="1.55" transform="translate(-100.71 299.87) rotate(-45)"/><ellipse class="cls-28" cx="313.81" cy="273.7" rx="0.59" ry="1.55" transform="translate(-101.62 302.06) rotate(-45)"/><ellipse class="cls-28" cx="313.81" cy="271.51" rx="1.55" ry="0.59" transform="translate(-100.07 301.42) rotate(-45)"/><ellipse class="cls-28" cx="311.62" cy="273.7" rx="1.55" ry="0.59" transform="translate(-102.26 300.51) rotate(-45)"/><circle class="cls-29" cx="312.72" cy="272.6" r="0.64"/><line class="cls-27" x1="324.63" y1="286.94" x2="325.22" y2="272.81"/><ellipse class="cls-30" cx="325.22" cy="273.71" rx="0.59" ry="1.55"/><ellipse class="cls-30" cx="325.22" cy="270.62" rx="0.59" ry="1.55"/><ellipse class="cls-30" cx="323.67" cy="272.16" rx="1.55" ry="0.59"/><ellipse class="cls-30" cx="326.77" cy="272.16" rx="1.55" ry="0.59"/><ellipse class="cls-30" cx="324.12" cy="271.07" rx="0.59" ry="1.55" transform="translate(-96.74 308.58) rotate(-45)"/><ellipse class="cls-30" cx="326.31" cy="273.26" rx="0.59" ry="1.55" transform="translate(-97.65 310.77) rotate(-45)"/><ellipse class="cls-30" cx="326.31" cy="271.07" rx="1.55" ry="0.59" transform="translate(-96.1 310.13) rotate(-45)"/><ellipse class="cls-30" cx="324.12" cy="273.26" rx="1.55" ry="0.59" transform="translate(-98.29 309.23) rotate(-45)"/><circle class="cls-29" cx="325.22" cy="272.16" r="0.64"/><line class="cls-27" x1="318.08" y1="293.56" x2="318.67" y2="279.42"/><ellipse class="cls-31" cx="318.67" cy="280.33" rx="0.59" ry="1.55"/><ellipse class="cls-31" cx="318.67" cy="277.23" rx="0.59" ry="1.55"/><ellipse class="cls-31" cx="317.12" cy="278.78" rx="1.55" ry="0.59"/><ellipse class="cls-31" cx="320.22" cy="278.78" rx="1.55" ry="0.59"/><ellipse class="cls-31" cx="317.58" cy="277.68" rx="0.59" ry="1.55" transform="translate(-103.33 305.89) rotate(-45)"/><ellipse class="cls-31" cx="319.77" cy="279.87" rx="0.59" ry="1.55" transform="translate(-104.24 308.08) rotate(-45)"/><ellipse class="cls-31" cx="319.77" cy="277.68" rx="1.55" ry="0.59" transform="translate(-102.69 307.44) rotate(-45)"/><ellipse class="cls-31" cx="317.58" cy="279.87" rx="1.55" ry="0.59" transform="translate(-104.88 306.53) rotate(-45)"/><circle class="cls-29" cx="318.67" cy="278.78" r="0.64"/><line class="cls-27" x1="306.66" y1="294.17" x2="307.25" y2="280.03"/><ellipse class="cls-32" cx="307.25" cy="280.94" rx="0.59" ry="1.55"/><ellipse class="cls-32" cx="307.25" cy="277.84" rx="0.59" ry="1.55"/><ellipse class="cls-32" cx="305.7" cy="279.39" rx="1.55" ry="0.59"/><ellipse class="cls-32" cx="308.8" cy="279.39" rx="1.55" ry="0.59"/><ellipse class="cls-32" cx="306.15" cy="278.29" rx="0.59" ry="1.55" transform="translate(-107.11 297.99) rotate(-45)"/><ellipse class="cls-32" cx="308.35" cy="280.49" rx="0.59" ry="1.55" transform="translate(-108.02 300.19) rotate(-45)"/><ellipse class="cls-32" cx="308.35" cy="278.29" rx="1.55" ry="0.59" transform="translate(-106.47 299.54) rotate(-45)"/><ellipse class="cls-32" cx="306.15" cy="280.49" rx="1.55" ry="0.59" transform="translate(-108.66 298.64) rotate(-45)"/><circle class="cls-29" cx="307.25" cy="279.39" r="0.64"/><line class="cls-27" x1="297.26" y1="292.86" x2="297.85" y2="278.73"/><ellipse class="cls-31" cx="297.85" cy="280.63" rx="0.59" ry="1.55"/><ellipse class="cls-31" cx="297.85" cy="277.54" rx="0.59" ry="1.55"/><ellipse class="cls-31" cx="296.3" cy="279.08" rx="1.55" ry="0.59"/><ellipse class="cls-31" cx="299.4" cy="279.08" rx="1.55" ry="0.59"/><ellipse class="cls-31" cx="296.76" cy="277.99" rx="0.59" ry="1.55" transform="translate(-109.65 291.26) rotate(-45)"/><ellipse class="cls-31" cx="298.95" cy="280.18" rx="0.59" ry="1.55" transform="translate(-110.56 293.45) rotate(-45)"/><ellipse class="cls-31" cx="298.95" cy="277.99" rx="1.55" ry="0.59" transform="translate(-109.01 292.81) rotate(-45)"/><ellipse class="cls-31" cx="296.76" cy="280.18" rx="1.55" ry="0.59" transform="translate(-111.2 291.9) rotate(-45)"/><circle class="cls-29" cx="297.85" cy="279.08" r="0.64"/><line class="cls-27" x1="289.49" y1="292.86" x2="290.08" y2="278.73"/><ellipse class="cls-32" cx="290.08" cy="280.63" rx="0.59" ry="1.55"/><ellipse class="cls-32" cx="290.08" cy="277.54" rx="0.59" ry="1.55"/><ellipse class="cls-32" cx="288.53" cy="279.08" rx="1.55" ry="0.59"/><ellipse class="cls-32" cx="291.63" cy="279.08" rx="1.55" ry="0.59"/><ellipse class="cls-32" cx="288.99" cy="277.99" rx="0.59" ry="1.55" transform="translate(-111.93 285.76) rotate(-45)"/><ellipse class="cls-32" cx="291.18" cy="280.18" rx="0.59" ry="1.55" transform="translate(-112.83 287.96) rotate(-45)"/><ellipse class="cls-32" cx="291.18" cy="277.99" rx="1.55" ry="0.59" transform="translate(-111.28 287.31) rotate(-45)"/><ellipse class="cls-32" cx="288.99" cy="280.18" rx="1.55" ry="0.59" transform="translate(-113.48 286.41) rotate(-45)"/><circle class="cls-29" cx="290.08" cy="279.08" r="0.64"/><line class="cls-27" x1="280.11" y1="293.06" x2="280.7" y2="278.93"/><ellipse class="cls-31" cx="280.7" cy="280.83" rx="0.59" ry="1.55"/><ellipse class="cls-31" cx="280.7" cy="277.73" rx="0.59" ry="1.55"/><ellipse class="cls-31" cx="279.15" cy="279.28" rx="1.55" ry="0.59"/><ellipse class="cls-31" cx="282.24" cy="279.28" rx="1.55" ry="0.59"/><ellipse class="cls-31" cx="279.6" cy="278.19" rx="0.59" ry="1.55" transform="translate(-114.82 279.19) rotate(-45)"/><ellipse class="cls-31" cx="281.79" cy="280.38" rx="0.59" ry="1.55" transform="translate(-115.72 281.38) rotate(-45)"/><ellipse class="cls-31" cx="281.79" cy="278.19" rx="1.55" ry="0.59" transform="translate(-114.17 280.74) rotate(-45)"/><ellipse class="cls-31" cx="279.6" cy="280.38" rx="1.55" ry="0.59" transform="translate(-116.36 279.83) rotate(-45)"/><circle class="cls-29" cx="280.7" cy="279.28" r="0.64"/><line class="cls-27" x1="270.55" y1="293.06" x2="271.14" y2="278.93"/><ellipse class="cls-32" cx="271.14" cy="280.83" rx="0.59" ry="1.55"/><ellipse class="cls-32" cx="271.14" cy="277.73" rx="0.59" ry="1.55"/><ellipse class="cls-32" cx="269.59" cy="279.28" rx="1.55" ry="0.59"/><ellipse class="cls-32" cx="272.69" cy="279.28" rx="1.55" ry="0.59"/><ellipse class="cls-32" cx="270.04" cy="278.19" rx="0.59" ry="1.55" transform="translate(-117.61 272.43) rotate(-45)"/><ellipse class="cls-32" cx="272.23" cy="280.38" rx="0.59" ry="1.55" transform="translate(-118.52 274.62) rotate(-45)"/><ellipse class="cls-32" cx="272.23" cy="278.19" rx="1.55" ry="0.59" transform="translate(-116.97 273.98) rotate(-45)"/><ellipse class="cls-32" cx="270.04" cy="280.38" rx="1.55" ry="0.59" transform="translate(-119.16 273.07) rotate(-45)"/><circle class="cls-29" cx="271.14" cy="279.28" r="0.64"/><line class="cls-27" x1="331.4" y1="293.17" x2="331.99" y2="279.03"/><ellipse class="cls-32" cx="331.99" cy="280.94" rx="0.59" ry="1.55"/><ellipse class="cls-32" cx="331.99" cy="277.84" rx="0.59" ry="1.55"/><ellipse class="cls-32" cx="330.44" cy="279.39" rx="1.55" ry="0.59"/><ellipse class="cls-32" cx="333.54" cy="279.39" rx="1.55" ry="0.59"/><ellipse class="cls-32" cx="330.89" cy="278.29" rx="0.59" ry="1.55" transform="translate(-99.87 315.49) rotate(-45)"/><ellipse class="cls-32" cx="333.08" cy="280.49" rx="0.59" ry="1.55" transform="translate(-100.78 317.68) rotate(-45)"/><ellipse class="cls-32" cx="333.08" cy="278.29" rx="1.55" ry="0.59" transform="translate(-99.23 317.04) rotate(-45)"/><ellipse class="cls-32" cx="330.89" cy="280.49" rx="1.55" ry="0.59" transform="translate(-101.42 316.13) rotate(-45)"/><circle class="cls-29" cx="331.99" cy="279.39" r="0.64"/><circle class="cls-33" cx="628.16" cy="103.62" r="1.61"/><circle class="cls-33" cx="628.16" cy="97.41" r="1.61"/><polyline class="cls-33" points="628.16 103.62 624.05 102.41 624.06 101.2"/><polygon class="cls-33" points="625.65 102.56 625.65 99.36 627.96 97.76 627.96 100.93 625.65 102.56"/><polyline class="cls-33" points="625.65 99.36 624.86 99.36 624.86 98.3"/><circle class="cls-33" cx="626.12" cy="83.72" r="1.61"/><circle class="cls-33" cx="626.12" cy="89.93" r="1.61"/><polyline class="cls-33" points="626.12 83.72 630.23 84.94 630.23 86.14"/><polygon class="cls-33" points="628.64 84.78 628.64 87.98 626.33 89.58 626.33 86.41 628.64 84.78"/><polyline class="cls-33" points="628.64 87.98 629.43 87.98 629.43 89.04"/><circle class="cls-33" cx="44.56" cy="277.78" r="1.61"/><circle class="cls-33" cx="44.56" cy="271.57" r="1.61"/><polyline class="cls-33" points="44.56 277.77 40.45 276.56 40.46 275.35"/><polygon class="cls-33" points="42.05 276.71 42.05 273.51 44.36 271.91 44.36 275.09 42.05 276.71"/><polyline class="cls-33" points="42.05 273.51 41.26 273.51 41.26 272.46"/><circle class="cls-33" cx="42.52" cy="257.87" r="1.61"/><circle class="cls-33" cx="42.52" cy="264.08" r="1.61"/><polyline class="cls-33" points="42.52 257.87 46.63 259.09 46.63 260.3"/><polygon class="cls-33" points="45.04 258.94 45.04 262.13 42.73 263.73 42.73 260.56 45.04 258.94"/><polyline class="cls-33" points="45.04 262.13 45.83 262.13 45.83 263.19"/><circle class="cls-33" cx="400.1" cy="164.05" r="1.61" transform="translate(-28.8 219.18) rotate(-29.62)"/><circle class="cls-33" cx="397.04" cy="158.66" r="1.61" transform="translate(-26.53 216.96) rotate(-29.62)"/><polyline class="cls-33" points="400.11 164.05 395.93 165.03 395.34 163.97"/><polygon class="cls-33" points="397.39 164.37 395.81 161.59 397.03 159.06 398.6 161.82 397.39 164.37"/><polyline class="cls-33" points="395.81 161.59 395.12 161.98 394.6 161.06"/><circle class="cls-33" cx="388.49" cy="147.76" r="1.61" transform="translate(-22.26 211.31) rotate(-29.62)"/><circle class="cls-33" cx="391.56" cy="153.15" r="1.61" transform="translate(-24.53 213.53) rotate(-29.62)"/><polyline class="cls-33" points="388.49 147.76 392.67 146.78 393.26 147.84"/><polygon class="cls-33" points="391.2 147.44 392.79 150.22 391.57 152.75 390 149.99 391.2 147.44"/><polyline class="cls-33" points="392.79 150.22 393.48 149.83 394 150.75"/></svg>