<svg xmlns="http://www.w3.org/2000/svg" viewBox="0 0 289.48 289.47"><defs><style>.a{fill:#474745;}.b{fill:#333331;}.c,.f{fill:#94948f;}.d{fill:#70706c;}.e{fill:#60605d;}.f{opacity:0.8;}.g{fill:#153e61;}.h{fill:none;stroke:#1c5382;stroke-linecap:round;stroke-miterlimit:10;stroke-width:4px;}</style></defs><title>seawall</title><rect class="a" y="71.23" width="289.48" height="2.37"/><rect class="b" width="289.48" height="71.23"/><rect class="c" x="3.92" y="57.84" width="89.62" height="15.84"/><rect class="c" y="10.11" width="289.48" height="7.92"/><rect class="d" y="7.55" width="289.48" height="2.37"/><rect class="c" x="99.33" y="57.84" width="89.62" height="15.84"/><rect class="c" x="195.86" y="57.84" width="89.62" height="15.84"/><rect class="e" y="73.69" width="289.48" height="106.94"/><path class="f" d="M5.49,92.12H-7.72A5.23,5.23,0,0,1-13,87V81a5.25,5.25,0,0,1,5.8-5.13L4.85,76.94a5.26,5.26,0,0,1,4.7,4l1.13,4.9A5.19,5.19,0,0,1,5.49,92.12Z"/><path class="f" d="M295,92.12h-13.2A5.23,5.23,0,0,1,276.46,87V81a5.25,5.25,0,0,1,5.8-5.13l12.08,1.07a5.26,5.26,0,0,1,4.7,4l1.13,4.9A5.19,5.19,0,0,1,295,92.12Z"/><path class="f" d="M19.67,75.83l13.2,0A5.23,5.23,0,0,1,38.17,81l0,6a5.25,5.25,0,0,1-5.81,5.11L20.27,91a5.26,5.26,0,0,1-4.69-4l-1.11-4.91A5.19,5.19,0,0,1,19.67,75.83Z"/><path class="f" d="M38.28,94.88l13.2,0a5.23,5.23,0,0,1,5.3,5.16l0,6a5.25,5.25,0,0,1-5.81,5.11l-12.08-1.1a5.26,5.26,0,0,1-4.69-4l-1.11-4.91A5.19,5.19,0,0,1,38.28,94.88Z"/><path class="f" d="M78.27,110.66l-13.17,1a5.26,5.26,0,0,1-5.7-4.74l-.47-6a5.22,5.22,0,0,1,5.38-5.54l12.13.18a5.29,5.29,0,0,1,5,3.65L83,104A5.16,5.16,0,0,1,78.27,110.66Z"/><path class="f" d="M65,91.32l-13.17,1a5.26,5.26,0,0,1-5.7-4.74l-.47-6a5.22,5.22,0,0,1,5.38-5.54l12.13.18a5.29,5.29,0,0,1,5,3.65l1.51,4.81A5.16,5.16,0,0,1,65,91.32Z"/><path class="f" d="M79.61,75.88l13.17-1a5.26,5.26,0,0,1,5.7,4.74l.47,6a5.22,5.22,0,0,1-5.38,5.54L81.43,91a5.29,5.29,0,0,1-5-3.65L74.92,82.5A5.16,5.16,0,0,1,79.61,75.88Z"/><path class="f" d="M141.08,109.31l-13.17,1a5.26,5.26,0,0,1-5.7-4.74l-.47-6A5.22,5.22,0,0,1,127.13,94l12.13.18a5.29,5.29,0,0,1,5,3.65l1.51,4.81A5.16,5.16,0,0,1,141.08,109.31Z"/><path class="f" d="M126.44,130.32l-13.17,1a5.26,5.26,0,0,1-5.7-4.74l-.47-6a5.22,5.22,0,0,1,5.38-5.54l12.13.18a5.29,5.29,0,0,1,5,3.65l1.51,4.81A5.16,5.16,0,0,1,126.44,130.32Z"/><path class="f" d="M124.16,90.66l-13.17,1a5.26,5.26,0,0,1-5.7-4.74l-.47-6a5.22,5.22,0,0,1,5.38-5.54l12.13.18a5.29,5.29,0,0,1,5,3.65L128.85,84A5.16,5.16,0,0,1,124.16,90.66Z"/><path class="f" d="M51.71,130.8l13.17,1a5.26,5.26,0,0,0,5.7-4.74l.47-6a5.22,5.22,0,0,0-5.38-5.54l-12.13.18a5.29,5.29,0,0,0-5,3.65L47,124.17A5.16,5.16,0,0,0,51.71,130.8Z"/><path class="f" d="M25.26,130.8l13.17,1a5.26,5.26,0,0,0,5.7-4.74l.47-6a5.22,5.22,0,0,0-5.38-5.54l-12.13.18a5.29,5.29,0,0,0-5,3.65l-1.51,4.81A5.16,5.16,0,0,0,25.26,130.8Z"/><path class="f" d="M-.55,130.8l13.17,1a5.26,5.26,0,0,0,5.7-4.74l.47-6a5.22,5.22,0,0,0-5.38-5.54l-12.13.18a5.29,5.29,0,0,0-5,3.65l-1.51,4.81A5.16,5.16,0,0,0-.55,130.8Z"/><path class="f" d="M288.93,130.8l13.17,1a5.26,5.26,0,0,0,5.7-4.74l.47-6a5.22,5.22,0,0,0-5.38-5.54l-12.13.18a5.29,5.29,0,0,0-5,3.65l-1.51,4.81A5.16,5.16,0,0,0,288.93,130.8Z"/><path class="f" d="M96.38,115.54l-13.17-1a5.26,5.26,0,0,0-5.7,4.74l-.47,6a5.22,5.22,0,0,0,5.38,5.54l12.13-.18a5.29,5.29,0,0,0,5-3.65l1.51-4.81A5.16,5.16,0,0,0,96.38,115.54Z"/><path class="f" d="M96.62,95.89l13.17-1a5.26,5.26,0,0,1,5.7,4.74l.47,6a5.22,5.22,0,0,1-5.38,5.54L98.45,111a5.29,5.29,0,0,1-5-3.65l-1.51-4.81A5.16,5.16,0,0,1,96.62,95.89Z"/><path class="f" d="M155,91.65H141.8a5.23,5.23,0,0,1-5.31-5.15v-6a5.25,5.25,0,0,1,5.8-5.13l12.08,1.07a5.26,5.26,0,0,1,4.7,4l1.13,4.9A5.19,5.19,0,0,1,155,91.65Z"/><path class="f" d="M169.18,76.33l13.2,0a5.23,5.23,0,0,1,5.3,5.16l0,6a5.25,5.25,0,0,1-5.81,5.11l-12.08-1.1a5.26,5.26,0,0,1-4.69-4L164,82.58A5.19,5.19,0,0,1,169.18,76.33Z"/><path class="f" d="M156.18,96.18l13.2,0a5.23,5.23,0,0,1,5.3,5.16l0,6a5.25,5.25,0,0,1-5.81,5.11l-12.08-1.1a5.26,5.26,0,0,1-4.69-4L151,102.43A5.19,5.19,0,0,1,156.18,96.18Z"/><path class="f" d="M200.21,111.56l-13.17,1a5.26,5.26,0,0,1-5.7-4.74l-.47-6a5.22,5.22,0,0,1,5.38-5.54l12.13.18a5.29,5.29,0,0,1,5,3.65l1.51,4.81A5.16,5.16,0,0,1,200.21,111.56Z"/><path class="f" d="M226.75,111.56l-13.17,1a5.26,5.26,0,0,1-5.7-4.74l-.47-6a5.22,5.22,0,0,1,5.38-5.54l12.13.18a5.29,5.29,0,0,1,5,3.65l1.51,4.81A5.16,5.16,0,0,1,226.75,111.56Z"/><path class="f" d="M214.55,91.82l-13.17,1a5.26,5.26,0,0,1-5.7-4.74l-.47-6a5.22,5.22,0,0,1,5.38-5.54l12.13.18a5.29,5.29,0,0,1,5,3.65l1.51,4.81A5.16,5.16,0,0,1,214.55,91.82Z"/><path class="f" d="M227.12,76.37l13.17-1a5.26,5.26,0,0,1,5.7,4.74l.47,6a5.22,5.22,0,0,1-5.38,5.54l-12.13-.18a5.29,5.29,0,0,1-5-3.65L222.44,83A5.16,5.16,0,0,1,227.12,76.37Z"/><path class="f" d="M253.42,110.31l-13.17,1a5.26,5.26,0,0,1-5.7-4.74l-.47-6A5.22,5.22,0,0,1,239.47,95l12.13.18a5.29,5.29,0,0,1,5,3.65l1.51,4.81A5.16,5.16,0,0,1,253.42,110.31Z"/><path class="f" d="M272.71,131.29l-13.17,1a5.26,5.26,0,0,1-5.7-4.74l-.47-6a5.22,5.22,0,0,1,5.38-5.54l12.13.18a5.29,5.29,0,0,1,5,3.65l1.51,4.81A5.16,5.16,0,0,1,272.71,131.29Z"/><path class="f" d="M280.55,111.16l-13.17,1a5.26,5.26,0,0,1-5.7-4.74l-.47-6a5.22,5.22,0,0,1,5.38-5.54l12.13.18a5.29,5.29,0,0,1,5,3.65l1.51,4.81A5.16,5.16,0,0,1,280.55,111.16Z"/><path class="f" d="M38.67,137.49l13.2,0a5.23,5.23,0,0,1,5.3,5.16l0,6a5.25,5.25,0,0,1-5.81,5.11l-12.08-1.1a5.26,5.26,0,0,1-4.69-4l-1.11-4.91A5.19,5.19,0,0,1,38.67,137.49Z"/><path class="f" d="M8.86,137.49l13.2,0a5.23,5.23,0,0,1,5.3,5.16l0,6a5.25,5.25,0,0,1-5.81,5.11l-12.08-1.1a5.26,5.26,0,0,1-4.69-4l-1.11-4.91A5.19,5.19,0,0,1,8.86,137.49Z"/><path class="f" d="M73.67,224.94l-13.17,1a5.26,5.26,0,0,1-5.7-4.74l-.47-6a5.22,5.22,0,0,1,5.38-5.54l12.13.18a5.29,5.29,0,0,1,5,3.65l1.51,4.81A5.16,5.16,0,0,1,73.67,224.94Z"/><path class="f" d="M126.44,175.25l-13.17,1a5.26,5.26,0,0,1-5.7-4.74l-.47-6a5.22,5.22,0,0,1,5.38-5.54l12.13.18a5.29,5.29,0,0,1,5,3.65l1.51,4.81A5.16,5.16,0,0,1,126.44,175.25Z"/><path class="f" d="M141.08,151.8l-13.17,1a5.26,5.26,0,0,1-5.7-4.74l-.47-6a5.22,5.22,0,0,1,5.38-5.54l12.13.18a5.29,5.29,0,0,1,5,3.65l1.51,4.81A5.16,5.16,0,0,1,141.08,151.8Z"/><path class="f" d="M96.62,136.65l13.17-1a5.26,5.26,0,0,1,5.7,4.74l.47,6a5.22,5.22,0,0,1-5.38,5.54l-12.13-.18a5.29,5.29,0,0,1-5-3.65l-1.51-4.81A5.16,5.16,0,0,1,96.62,136.65Z"/><path class="f" d="M157.35,135.64l13.2,0a5.23,5.23,0,0,1,5.3,5.16l0,6a5.25,5.25,0,0,1-5.81,5.11l-12.08-1.1a5.26,5.26,0,0,1-4.69-4l-1.11-4.91A5.19,5.19,0,0,1,157.35,135.64Z"/><path class="f" d="M200.21,151.89l-13.17,1a5.26,5.26,0,0,1-5.7-4.74l-.47-6a5.22,5.22,0,0,1,5.38-5.54l12.13.18a5.29,5.29,0,0,1,5,3.65l1.51,4.81A5.16,5.16,0,0,1,200.21,151.89Z"/><path class="f" d="M226.75,151.8l-13.17,1a5.26,5.26,0,0,1-5.7-4.74l-.47-6a5.22,5.22,0,0,1,5.38-5.54l12.13.18a5.29,5.29,0,0,1,5,3.65l1.51,4.81A5.16,5.16,0,0,1,226.75,151.8Z"/><path class="f" d="M254,151.89l-13.17,1a5.26,5.26,0,0,1-5.7-4.74l-.47-6a5.22,5.22,0,0,1,5.38-5.54l12.13.18a5.29,5.29,0,0,1,5,3.65l1.51,4.81A5.16,5.16,0,0,1,254,151.89Z"/><path class="f" d="M280.55,152.79l-13.17,1a5.26,5.26,0,0,1-5.7-4.74l-.47-6a5.22,5.22,0,0,1,5.38-5.54l12.13.18a5.29,5.29,0,0,1,5,3.65l1.51,4.81A5.16,5.16,0,0,1,280.55,152.79Z"/><path class="f" d="M5.4,109.25l-.83-8.82c-.18-2,2.69-3.81,6.42-4.14l7.84-.69c4-.35,7.26,1.17,7.09,3.28l-.65,8.19c-.12,1.56-2.13,3-5,3.6L13.95,112C9.77,112.86,5.61,111.52,5.4,109.25Z"/><path class="f" d="M25.77,158.05l13.2,0a5.23,5.23,0,0,1,5.3,5.16l0,6a5.25,5.25,0,0,1-5.81,5.11l-12.08-1.1a5.26,5.26,0,0,1-4.69-4l-1.11-4.91A5.19,5.19,0,0,1,25.77,158.05Z"/><path class="f" d="M-4.36,158.05l13.2,0a5.23,5.23,0,0,1,5.3,5.16l0,6a5.25,5.25,0,0,1-5.81,5.11l-12.08-1.1a5.26,5.26,0,0,1-4.69-4l-1.11-4.91A5.19,5.19,0,0,1-4.36,158.05Z"/><path class="f" d="M285.1,158.05l13.2,0a5.23,5.23,0,0,1,5.3,5.16l0,6a5.25,5.25,0,0,1-5.81,5.11l-12.08-1.1a5.26,5.26,0,0,1-4.69-4l-1.11-4.91A5.19,5.19,0,0,1,285.1,158.05Z"/><path class="f" d="M68.9,173.83l-13.17,1a5.26,5.26,0,0,1-5.7-4.74l-.47-6A5.22,5.22,0,0,1,55,158.57l12.13.18a5.29,5.29,0,0,1,5,3.65l1.51,4.81A5.16,5.16,0,0,1,68.9,173.83Z"/><path class="f" d="M81,150.94l-13.17,1a5.26,5.26,0,0,1-5.7-4.74l-.47-6a5.22,5.22,0,0,1,5.38-5.54l12.13.18a5.29,5.29,0,0,1,5,3.65l1.51,4.81A5.16,5.16,0,0,1,81,150.94Z"/><path class="f" d="M156,173.83l-13.17,1a5.26,5.26,0,0,1-5.7-4.74l-.47-6a5.22,5.22,0,0,1,5.38-5.54l12.13.18a5.29,5.29,0,0,1,5,3.65l1.51,4.81A5.16,5.16,0,0,1,156,173.83Z"/><path class="f" d="M80.83,159.06l13.17-1a5.26,5.26,0,0,1,5.7,4.74l.47,6a5.22,5.22,0,0,1-5.38,5.54l-12.13-.18a5.29,5.29,0,0,1-5-3.65l-1.51-4.81A5.16,5.16,0,0,1,80.83,159.06Z"/><path class="f" d="M171.29,159l13.2,0a5.23,5.23,0,0,1,5.3,5.16l0,6a5.25,5.25,0,0,1-5.81,5.11l-12.08-1.1a5.26,5.26,0,0,1-4.69-4l-1.11-4.91A5.19,5.19,0,0,1,171.29,159Z"/><path class="f" d="M213.74,174.33l-13.17,1a5.26,5.26,0,0,1-5.7-4.74l-.47-6a5.22,5.22,0,0,1,5.38-5.54l12.13.18a5.29,5.29,0,0,1,5,3.65l1.51,4.81A5.16,5.16,0,0,1,213.74,174.33Z"/><path class="f" d="M243.44,172.48l-13.17,1a5.26,5.26,0,0,1-5.7-4.74l-.47-6a5.22,5.22,0,0,1,5.38-5.54l12.13.18a5.29,5.29,0,0,1,5,3.65l1.51,4.81A5.16,5.16,0,0,1,243.44,172.48Z"/><path class="f" d="M271.57,174.33l-13.17,1a5.26,5.26,0,0,1-5.7-4.74l-.47-6a5.22,5.22,0,0,1,5.38-5.54l12.13.18a5.29,5.29,0,0,1,5,3.65l1.51,4.81A5.16,5.16,0,0,1,271.57,174.33Z"/><path class="f" d="M268.15,91.43,255,92.4a5.26,5.26,0,0,1-5.7-4.74l-.47-6a5.22,5.22,0,0,1,5.38-5.54l12.13.18a5.29,5.29,0,0,1,5,3.65l1.51,4.81A5.16,5.16,0,0,1,268.15,91.43Z"/><path class="f" d="M201.22,131.29l13.17,1a5.26,5.26,0,0,0,5.7-4.74l.47-6a5.22,5.22,0,0,0-5.38-5.54l-12.13.18a5.29,5.29,0,0,0-5,3.65l-1.51,4.81A5.16,5.16,0,0,0,201.22,131.29Z"/><path class="f" d="M174.78,131.29l13.17,1a5.26,5.26,0,0,0,5.7-4.74l.47-6a5.22,5.22,0,0,0-5.38-5.54l-12.13.18a5.29,5.29,0,0,0-5,3.65l-1.51,4.81A5.16,5.16,0,0,0,174.78,131.29Z"/><path class="f" d="M141.77,131.29l13.17,1a5.26,5.26,0,0,0,5.7-4.74l.47-6a5.22,5.22,0,0,0-5.38-5.54l-12.13.18a5.29,5.29,0,0,0-5,3.65l-1.51,4.81A5.16,5.16,0,0,0,141.77,131.29Z"/><path class="f" d="M243.25,116l-13.17-1a5.26,5.26,0,0,0-5.7,4.74l-.47,6a5.22,5.22,0,0,0,5.38,5.54l12.13-.18a5.29,5.29,0,0,0,5-3.65l1.51-4.81A5.16,5.16,0,0,0,243.25,116Z"/><path class="g" d="M289.48,289.47H0V179.68c-1.65-1.57,120.36-3.33,142.59-1.19s146.89,1.19,146.89,1.19Z"/><path class="h" d="M23.27,246.43a13.27,13.27,0,0,1,16.51-4.7c2.8,1.38,5.09,3.77,8.08,4.69s6.53.15,9.55-1.09,5.89-2.91,9-3.77"/><path class="h" d="M150.16,246.17a36.74,36.74,0,0,1,19.42,1.75c3,1.12,5.91,2.66,9.09,2.78,4.19.16,8-2.15,11.73-4.13s8-3.74,12-2.44"/><path class="h" d="M162.77,198.22c3.75-2,7.87-4,12-3.14,4.37.86,7.54,4.64,11.65,6.37a17.66,17.66,0,0,0,11,.46,52.6,52.6,0,0,0,10.38-4.21"/><path class="h" d="M77.56,198.9A94.7,94.7,0,0,0,88,201.39c3.08.55,6.63.83,9-1.24,1-.87,1.67-2.09,2.83-2.7,1.58-.83,3.51-.26,5.19.33q5.7,2,11.36,4.1"/><path class="h" d="M246.8,231.86c0-1.1,1.44-1.47,2.55-1.47,3,0,6.22,0,8.86,1.53,1.7,1,3.23,2.54,5.18,2.56,3.91,0,6.08-6,9.94-5.44"/><path class="h" d="M245.08,202.78a42.77,42.77,0,0,1,4-5.13A10.37,10.37,0,0,1,254,194.2c3.16-.78,6.26,1.11,9.28,2.31a22.91,22.91,0,0,0,14.51.76"/><path class="h" d="M15.44,279.46c5.91-.37,12-.73,17.68.8a71.35,71.35,0,0,0,7.08,2,15.7,15.7,0,0,0,11.12-2.47"/><path class="h" d="M22.5,199.28a11.8,11.8,0,0,1,10,1.32,6.24,6.24,0,0,0,1.44.81c1.89.61,3.63-1.1,5.27-2.23a10.15,10.15,0,0,1,5.65-1.79"/><path class="h" d="M193,273.29c11.8-.22,23.61-5.23,35.12-2.62,8,1.81,15.73,7.25,23.7,5.26"/><path class="h" d="M92,270c6.57-2.24,13.5,1.47,20.3,2.87,2.29.47,4.79.65,6.84-.45s3.34-3.89,2.12-5.88"/><path class="h" d="M106.5,228.76a25.72,25.72,0,0,1,11.11-.35c6.28,1.19,12.42,4.72,18.66,3.36,3.64-.79,6.73-3.19,9.34-5.85"/></svg>