<svg id="Layer_1" data-name="Layer 1" xmlns="http://www.w3.org/2000/svg" viewBox="0 0 538.33 538.3"><defs><style>.cls-1{fill:#a13525;}.cls-2{fill:#6c92ad;}.cls-2,.cls-5{stroke:#163a52;stroke-miterlimit:10;stroke-width:3px;}.cls-3{fill:#fffee1;}.cls-4{fill:#6dcf4d;}.cls-5{fill:none;}.cls-6{fill:#751c0f;opacity:0.6;}</style></defs><title>new</title><rect class="cls-1" x="-1.43" y="0.31" width="540.62" height="540.62"/><rect class="cls-2" x="24.49" y="323.22" width="142.23" height="94.58"/><rect class="cls-2" x="364.68" y="323.22" width="142.23" height="94.58"/><polyline class="cls-2" points="215.01 538.59 215.01 336.31 305.38 336.31 305.38 538.59"/><path class="cls-3" d="M18.21,168.08H38.14a0,0,0,0,1,0,0V286.83a7.4,7.4,0,0,1-7.4,7.4H25.61a7.4,7.4,0,0,1-7.4-7.4V168.08A0,0,0,0,1,18.21,168.08Z"/><path class="cls-3" d="M58.07,168.08H78a0,0,0,0,1,0,0V286.83a7.4,7.4,0,0,1-7.4,7.4H65.48a7.4,7.4,0,0,1-7.4-7.4V168.08A0,0,0,0,1,58.07,168.08Z"/><path class="cls-3" d="M97.93,168.08h19.93a0,0,0,0,1,0,0V286.83a7.4,7.4,0,0,1-7.4,7.4h-5.12a7.4,7.4,0,0,1-7.4-7.4V168.08a0,0,0,0,1,0,0Z"/><path class="cls-3" d="M137.8,168.08h19.93a0,0,0,0,1,0,0V286.83a7.4,7.4,0,0,1-7.4,7.4H145.2a7.4,7.4,0,0,1-7.4-7.4V168.08A0,0,0,0,1,137.8,168.08Z"/><path class="cls-3" d="M177.37,168.08H197.3a0,0,0,0,1,0,0V286.83a7.4,7.4,0,0,1-7.4,7.4h-5.12a7.4,7.4,0,0,1-7.4-7.4V168.08a0,0,0,0,1,0,0Z"/><path class="cls-3" d="M217.23,168.08h19.93a0,0,0,0,1,0,0V286.83a7.4,7.4,0,0,1-7.4,7.4h-5.12a7.4,7.4,0,0,1-7.4-7.4V168.08A0,0,0,0,1,217.23,168.08Z"/><path class="cls-3" d="M257.09,168.08H277a0,0,0,0,1,0,0V286.83a7.4,7.4,0,0,1-7.4,7.4H264.5a7.4,7.4,0,0,1-7.4-7.4V168.08A0,0,0,0,1,257.09,168.08Z"/><path class="cls-3" d="M297,168.08h19.93a0,0,0,0,1,0,0V286.83a7.4,7.4,0,0,1-7.4,7.4h-5.12a7.4,7.4,0,0,1-7.4-7.4V168.08a0,0,0,0,1,0,0Z"/><path class="cls-3" d="M336.82,168.08h19.93a0,0,0,0,1,0,0V286.83a7.4,7.4,0,0,1-7.4,7.4h-5.12a7.4,7.4,0,0,1-7.4-7.4V168.08A0,0,0,0,1,336.82,168.08Z"/><path class="cls-3" d="M376.68,168.08h19.93a0,0,0,0,1,0,0V286.83a7.4,7.4,0,0,1-7.4,7.4h-5.12a7.4,7.4,0,0,1-7.4-7.4V168.08a0,0,0,0,1,0,0Z"/><path class="cls-3" d="M416.54,168.08h19.93a0,0,0,0,1,0,0V286.83a7.4,7.4,0,0,1-7.4,7.4h-5.12a7.4,7.4,0,0,1-7.4-7.4V168.08a0,0,0,0,1,0,0Z"/><path class="cls-3" d="M456.4,168.08h19.93a0,0,0,0,1,0,0V286.83a7.4,7.4,0,0,1-7.4,7.4h-5.12a7.4,7.4,0,0,1-7.4-7.4V168.08a0,0,0,0,1,0,0Z"/><path class="cls-3" d="M496.27,168.08H516.2a0,0,0,0,1,0,0V286.83a7.4,7.4,0,0,1-7.4,7.4h-5.12a7.4,7.4,0,0,1-7.4-7.4V168.08a0,0,0,0,1,0,0Z"/><path class="cls-4" d="M-1.72,168.08H18.21a0,0,0,0,1,0,0V286.83a7.4,7.4,0,0,1-7.4,7.4H5.68a7.4,7.4,0,0,1-7.4-7.4V168.08A0,0,0,0,1-1.72,168.08Z"/><path class="cls-4" d="M38.14,168.08H58.07a0,0,0,0,1,0,0V286.83a7.4,7.4,0,0,1-7.4,7.4H45.54a7.4,7.4,0,0,1-7.4-7.4V168.08a0,0,0,0,1,0,0Z"/><path class="cls-4" d="M78,168.08H97.93a0,0,0,0,1,0,0V286.83a7.4,7.4,0,0,1-7.4,7.4H85.41a7.4,7.4,0,0,1-7.4-7.4V168.08A0,0,0,0,1,78,168.08Z"/><path class="cls-4" d="M117.86,168.08H137.8a0,0,0,0,1,0,0V286.83a7.4,7.4,0,0,1-7.4,7.4h-5.12a7.4,7.4,0,0,1-7.4-7.4V168.08A0,0,0,0,1,117.86,168.08Z"/><path class="cls-4" d="M157.44,168.08h19.93a0,0,0,0,1,0,0V286.83a7.4,7.4,0,0,1-7.4,7.4h-5.12a7.4,7.4,0,0,1-7.4-7.4V168.08a0,0,0,0,1,0,0Z"/><path class="cls-4" d="M197.3,168.08h19.93a0,0,0,0,1,0,0V286.83a7.4,7.4,0,0,1-7.4,7.4H204.7a7.4,7.4,0,0,1-7.4-7.4V168.08a0,0,0,0,1,0,0Z"/><path class="cls-4" d="M237.16,168.08h19.93a0,0,0,0,1,0,0V286.83a7.4,7.4,0,0,1-7.4,7.4h-5.12a7.4,7.4,0,0,1-7.4-7.4V168.08A0,0,0,0,1,237.16,168.08Z"/><path class="cls-4" d="M277,168.08H297a0,0,0,0,1,0,0V286.83a7.4,7.4,0,0,1-7.4,7.4h-5.12a7.4,7.4,0,0,1-7.4-7.4V168.08A0,0,0,0,1,277,168.08Z"/><path class="cls-4" d="M316.89,168.08h19.93a0,0,0,0,1,0,0V286.83a7.4,7.4,0,0,1-7.4,7.4h-5.12a7.4,7.4,0,0,1-7.4-7.4V168.08A0,0,0,0,1,316.89,168.08Z"/><path class="cls-4" d="M356.75,168.08h19.93a0,0,0,0,1,0,0V286.83a7.4,7.4,0,0,1-7.4,7.4h-5.12a7.4,7.4,0,0,1-7.4-7.4V168.08a0,0,0,0,1,0,0Z"/><path class="cls-4" d="M396.61,168.08h19.93a0,0,0,0,1,0,0V286.83a7.4,7.4,0,0,1-7.4,7.4H404a7.4,7.4,0,0,1-7.4-7.4V168.08a0,0,0,0,1,0,0Z"/><path class="cls-4" d="M436.47,168.08H456.4a0,0,0,0,1,0,0V286.83a7.4,7.4,0,0,1-7.4,7.4h-5.12a7.4,7.4,0,0,1-7.4-7.4V168.08A0,0,0,0,1,436.47,168.08Z"/><path class="cls-4" d="M476.34,168.08h19.93a0,0,0,0,1,0,0V286.83a7.4,7.4,0,0,1-7.4,7.4h-5.12a7.4,7.4,0,0,1-7.4-7.4V168.08A0,0,0,0,1,476.34,168.08Z"/><path class="cls-4" d="M516.49,168.08h19.93a0,0,0,0,1,0,0V286.83a7.4,7.4,0,0,1-7.4,7.4H523.9a7.4,7.4,0,0,1-7.4-7.4V168.08A0,0,0,0,1,516.49,168.08Z"/><path class="cls-5" d="M294.18,416.57h-4.93a3.84,3.84,0,0,0-3.87,3.81v13.88a3.84,3.84,0,0,0,3.87,3.81h4.93"/><rect class="cls-6" x="74.89" y="444.88" width="30.06" height="10.6"/><rect class="cls-6" x="61.18" y="459.28" width="30.06" height="10.6"/><rect class="cls-6" x="39.61" y="444.88" width="30.06" height="10.6"/><rect class="cls-6" x="52.34" y="430.48" width="30.06" height="10.6"/><rect class="cls-6" x="351.05" y="424.65" width="30.06" height="10.6"/><rect class="cls-6" x="444.77" y="476.9" width="30.06" height="10.6"/><rect class="cls-6" x="479.57" y="476.9" width="30.06" height="10.6"/><rect class="cls-6" x="469.33" y="463.31" width="30.06" height="10.6"/><rect class="cls-6" x="459.79" y="490.03" width="30.06" height="10.6"/><rect class="cls-6" x="337.34" y="439.05" width="30.06" height="10.6"/><rect class="cls-6" x="315.76" y="424.65" width="30.06" height="10.6"/><rect class="cls-6" x="328.49" y="410.25" width="30.06" height="10.6"/><rect class="cls-6" x="49.58" y="116.26" width="30.06" height="10.6"/><rect class="cls-6" x="35.87" y="130.66" width="30.06" height="10.6"/><rect class="cls-6" x="14.29" y="116.26" width="30.06" height="10.6"/><rect class="cls-6" x="27.02" y="101.86" width="30.06" height="10.6"/><rect class="cls-6" x="61.83" y="101.86" width="30.06" height="10.6"/><rect class="cls-6" x="71.8" y="129.56" width="30.06" height="10.6"/><rect class="cls-6" x="241.5" y="109.62" width="30.06" height="10.6"/><rect class="cls-6" x="262.86" y="94.1" width="30.06" height="10.6"/><rect class="cls-6" x="221.27" y="95.21" width="30.06" height="10.6"/><rect class="cls-6" x="454.77" y="81.44" width="30.06" height="10.6" transform="translate(939.61 173.47) rotate(180)"/><rect class="cls-6" x="417.53" y="81.98" width="30.06" height="10.6" transform="translate(865.11 174.56) rotate(180)"/><rect class="cls-6" x="468.49" y="67.04" width="30.06" height="10.6" transform="translate(967.03 144.67) rotate(180)"/><rect class="cls-6" x="490.06" y="81.44" width="30.06" height="10.6" transform="translate(1010.18 173.47) rotate(180)"/><rect class="cls-6" x="477.33" y="95.83" width="30.06" height="10.6" transform="translate(984.72 202.26) rotate(180)"/><rect class="cls-6" x="442.52" y="95.83" width="30.06" height="10.6" transform="translate(915.1 202.26) rotate(180)"/><rect class="cls-6" x="432.56" y="68.14" width="30.06" height="10.6" transform="translate(895.17 146.87) rotate(180)"/></svg>