<svg xmlns="http://www.w3.org/2000/svg" viewBox="0 0 300 300"><defs><style>.a{fill:#fec381;}.b{fill:#ba8e5e;}.c{fill:#b3b4b8;stroke:#f2f2f2;stroke-miterlimit:10;stroke-width:2px;}.d{fill:#4da04d;}.e{fill:#5eba5e;}.f{fill:#cf69d1;}.g{fill:#b35bb5;}.h{fill:#e373e6;}.i{fill:#c02dc4;}.j{fill:#478c47;}.k{fill:#51a151;}</style></defs><title>smallerappt</title><rect class="a" width="300" height="300"/><rect class="b" x="73.14" y="101.05" width="67" height="67"/><rect class="c" x="19.14" y="101.05" width="39" height="65"/><rect class="c" x="163.81" y="101.05" width="39" height="65"/><rect class="c" x="236.14" y="101.05" width="39" height="65"/><rect class="c" x="19.14" y="202.05" width="39" height="65"/><rect class="c" x="91.47" y="202.05" width="39" height="65"/><rect class="c" x="163.81" y="202.05" width="39" height="65"/><rect class="c" x="73.14" y="140.05" width="67" height="28"/><rect class="b" x="222.14" y="201.05" width="67" height="67"/><rect class="c" x="222.14" y="240.05" width="67" height="28"/><ellipse class="d" cx="85.12" cy="140.02" rx="8" ry="8.64"/><path class="d" d="M117.94,135.78c3.42,4,2.73,8.87-1.54,10.86s-10.5.36-13.92-3.65-2.73-8.87,1.54-10.86S114.52,131.78,117.94,135.78Z"/><path class="e" d="M119.93,145.69c-6-1.7-9.36-5.91-7.54-9.39s8.13-4.92,14.11-3.22,9.36,5.91,7.54,9.39S125.91,147.39,119.93,145.69Z"/><path class="e" d="M97.4,143.65c-6.38.76-12.11-1.24-12.82-4.46s3.89-6.45,10.27-7.22,12.11,1.24,12.82,4.46S103.77,142.89,97.4,143.65Z"/><circle class="f" cx="121.27" cy="137.79" r="0.64" transform="translate(-61.46 155.1) rotate(-54.06)"/><circle class="g" cx="122.27" cy="138.04" r="0.73" transform="translate(-61.26 156.01) rotate(-54.06)"/><circle class="h" cx="122.18" cy="137.15" r="0.74" transform="translate(-60.58 155.58) rotate(-54.06)"/><circle class="i" cx="121.85" cy="137.72" r="0.41"/><circle class="f" cx="101.15" cy="137" r="0.84" transform="translate(-69.14 138.49) rotate(-54.06)"/><circle class="g" cx="102.45" cy="137.33" r="0.96" transform="translate(-68.87 139.68) rotate(-54.06)"/><circle class="h" cx="102.34" cy="136.17" r="0.97" transform="translate(-67.98 139.11) rotate(-54.06)"/><circle class="i" cx="101.91" cy="136.91" r="0.54"/><circle class="f" cx="88.95" cy="137.05" r="0.7" transform="translate(-74.22 128.63) rotate(-54.06)"/><circle class="g" cx="90.04" cy="137.33" r="0.8" transform="translate(-73.99 129.63) rotate(-54.06)"/><circle class="h" cx="89.95" cy="136.36" r="0.82" transform="translate(-73.24 129.16) rotate(-54.06)"/><circle class="i" cx="89.59" cy="136.98" r="0.46"/><circle class="e" cx="230.92" cy="240.69" r="3.03" transform="translate(-46.22 426.29) rotate(-80)"/><circle class="e" cx="231.29" cy="244.71" r="2.41" transform="translate(-49.88 429.97) rotate(-80)"/><circle class="e" cx="230.74" cy="247.24" r="2.06" transform="translate(-52.82 431.53) rotate(-80)"/><circle class="e" cx="231.8" cy="250.45" r="1.76" transform="matrix(0.17, -0.98, 0.98, 0.17, -55.11, 435.22)"/><circle class="e" cx="230.52" cy="253.11" r="1.76" transform="translate(-58.79 436.15) rotate(-80)"/><circle class="e" cx="231.3" cy="255.97" r="1.5" transform="translate(-60.96 439.29) rotate(-80)"/><circle class="e" cx="230.39" cy="258.42" r="1.5" transform="translate(-64.12 440.42) rotate(-80)"/><ellipse class="e" cx="283.04" cy="240.69" rx="3.14" ry="3.03"/><ellipse class="e" cx="281.94" cy="244.58" rx="2.5" ry="2.41"/><ellipse class="e" cx="282.04" cy="247.18" rx="2.14" ry="2.06"/><ellipse class="e" cx="280.38" cy="250.15" rx="1.82" ry="1.76"/><ellipse class="e" cx="281.22" cy="252.99" rx="1.82" ry="1.76"/><ellipse class="e" cx="279.9" cy="255.67" rx="1.56" ry="1.5"/><ellipse class="e" cx="280.38" cy="258.24" rx="1.56" ry="1.5"/><ellipse class="e" cx="259.38" cy="240.69" rx="2.75" ry="3.03" transform="translate(-20.36 23.99) rotate(-5.1)"/><ellipse class="e" cx="258.76" cy="244.65" rx="2.2" ry="2.41" transform="translate(-20.71 23.95) rotate(-5.1)"/><ellipse class="e" cx="259.08" cy="247.23" rx="1.87" ry="2.06" transform="translate(-20.94 23.99) rotate(-5.1)"/><ellipse class="e" cx="257.9" cy="250.32" rx="1.6" ry="1.76" transform="translate(-21.22 23.9) rotate(-5.1)"/><ellipse class="e" cx="258.87" cy="253.08" rx="1.6" ry="1.76" transform="translate(-21.46 24) rotate(-5.1)"/><ellipse class="e" cx="257.97" cy="255.86" rx="1.37" ry="1.5" transform="translate(-21.71 23.93) rotate(-5.1)"/><ellipse class="e" cx="258.61" cy="258.38" rx="1.37" ry="1.5" transform="translate(-21.93 24) rotate(-5.1)"/><circle class="j" cx="238.67" cy="240.69" r="3.03" transform="translate(-24.08 26.55) rotate(-6.06)"/><circle class="j" cx="237.3" cy="244.44" r="2.41" transform="translate(-24.48 26.42) rotate(-6.06)"/><circle class="j" cx="238.4" cy="247.24" r="2.06" transform="translate(-24.77 26.55) rotate(-6.06)"/><circle class="j" cx="239.7" cy="250.41" r="1.76" transform="translate(-25.1 26.71) rotate(-6.06)"/><circle class="j" cx="239.36" cy="252.98" r="1.76" transform="translate(-25.37 26.69) rotate(-6.06)"/><circle class="j" cx="240.8" cy="255.59" r="1.5" transform="translate(-37.16 470.18) rotate(-84.38)"/><circle class="j" cx="240.52" cy="258.14" r="1.5" transform="matrix(0.87, -0.49, 0.49, 0.87, -95.66, 151.05)"/><circle class="j" cx="267.94" cy="240.69" r="3.03" transform="translate(1.2 482.71) rotate(-84.15)"/><circle class="j" cx="265.83" cy="244.08" r="2.41" transform="translate(-4.07 483.64) rotate(-84.15)"/><circle class="j" cx="266.33" cy="247.04" r="2.06" transform="translate(-6.57 486.81) rotate(-84.15)"/><circle class="j" cx="266.95" cy="250.41" r="1.76" transform="translate(-9.37 490.44) rotate(-84.15)"/><circle class="j" cx="266.08" cy="252.86" r="1.76" transform="translate(-12.58 491.78) rotate(-84.15)"/><circle class="j" cx="266.95" cy="255.7" r="1.5" transform="translate(-57.3 433.21) rotate(-72.46)"/><circle class="j" cx="266.16" cy="258.15" r="1.5" transform="translate(-65.14 91.66) rotate(-17.44)"/><ellipse class="j" cx="252.19" cy="240.69" rx="2.96" ry="3.03"/><ellipse class="j" cx="253.91" cy="244.27" rx="2.36" ry="2.41"/><ellipse class="j" cx="253.13" cy="247.18" rx="2.02" ry="2.06"/><ellipse class="j" cx="252.19" cy="250.46" rx="1.72" ry="1.76"/><ellipse class="j" cx="252.79" cy="252.99" rx="1.72" ry="1.76"/><path class="j" d="M251.36,254.26a1.5,1.5,0,0,0-1.14,1.77A1.47,1.47,0,0,0,252,257.2a1.5,1.5,0,0,0,1.14-1.77A1.47,1.47,0,0,0,251.36,254.26Z"/><path class="j" d="M250.84,257.65a1.51,1.51,0,0,0,.77,2,1.46,1.46,0,0,0,1.93-.79,1.51,1.51,0,0,0-.77-2A1.46,1.46,0,0,0,250.84,257.65Z"/><circle class="k" cx="245.1" cy="240.69" r="3.03"/><circle class="k" cx="246.1" cy="243.06" r="2.41"/><circle class="k" cx="245.32" cy="245.12" r="2.06"/><circle class="k" cx="245.55" cy="247" r="1.76" transform="translate(-28.3 31.8) rotate(-7.01)"/><circle class="k" cx="246.1" cy="249.24" r="1.76" transform="translate(-85.91 137.63) rotate(-26.78)"/><circle class="k" cx="246.59" cy="251.23" r="1.5" transform="translate(-49.37 441.83) rotate(-78.32)"/><circle class="k" cx="246.1" cy="253.63" r="1.5" transform="translate(-80.24 117.99) rotate(-23.29)"/><circle class="k" cx="275.28" cy="240.69" r="3.03" transform="translate(8.33 490.59) rotate(-84.28)"/><circle class="k" cx="276.04" cy="243.14" r="2.41" transform="translate(6.57 493.55) rotate(-84.28)"/><circle class="k" cx="275.06" cy="245.12" r="2.06" transform="translate(3.73 494.35) rotate(-84.28)"/><circle class="k" cx="275.1" cy="247.01" r="1.76" transform="translate(-5.46 6.22) rotate(-1.28)"/><circle class="k" cx="275.42" cy="249.29" r="1.76" transform="translate(-71.18 115.6) rotate(-21.06)"/><circle class="k" cx="275.71" cy="251.33" r="1.5" transform="matrix(0.3, -0.95, 0.95, 0.3, -46.59, 439.21)"/><circle class="k" cx="274.98" cy="253.67" r="1.5" transform="translate(-63.74 94.84) rotate(-17.57)"/></svg>